<svg xmlns="http://www.w3.org/2000/svg" xmlns:xlink="http://www.w3.org/1999/xlink" xmlns:lucid="lucid" width="2706.67" height="2360"><g transform="translate(-20 -40)" lucid:page-tab-id="0_0"><path d="M1226.67 146c0-3.3 2.68-6 6-6H1934c3.3 0 6 2.7 6 6v968c0 3.3-2.7 6-6 6h-701.33c-3.32 0-6-2.7-6-6z" stroke="#5e5e5e" stroke-width="3" fill="#3b48cc" fill-opacity=".15"/><path d="M1286.67 353.42c0-3.32 2.68-6 6-6h588c3.3 0 6 2.68 6 6v168c0 3.3-2.7 6-6 6h-588c-3.32 0-6-2.7-6-6z" stroke="#5e5e5e" stroke-width="3" fill="#fff"/><use xlink:href="#a" transform="matrix(1,0,0,1,1291.666666666667,352.4173228346455) translate(168.14814814814815 86.84027777777777)"/><use xlink:href="#b" transform="matrix(1,0,0,1,1291.666666666667,352.4173228346455) translate(244.50617283950618 86.84027777777777)"/><use xlink:href="#c" transform="matrix(1,0,0,1,1291.666666666667,352.4173228346455) translate(279.01234567901236 86.84027777777777)"/><use xlink:href="#d" transform="matrix(1,0,0,1,1291.666666666667,352.4173228346455) translate(379.9382716049383 86.84027777777777)"/><path d="M40 486c0-3.3 2.7-6 6-6h608c3.3 0 6 2.7 6 6v168c0 3.3-2.7 6-6 6H46c-3.3 0-6-2.7-6-6z" stroke="#5e5e5e" stroke-width="3" fill="#fff"/><use xlink:href="#e" transform="matrix(1,0,0,1,45,485) translate(194.5987654320988 76.21527777777777)"/><use xlink:href="#f" transform="matrix(1,0,0,1,45,485) translate(220.55555555555554 102.88194444444446)"/><use xlink:href="#g" transform="matrix(1,0,0,1,45,485) translate(292.09876543209873 102.88194444444446)"/><path d="M1286.67 617.42c0-3.32 2.68-6 6-6h588c3.3 0 6 2.68 6 6v168c0 3.3-2.7 6-6 6h-588c-3.32 0-6-2.7-6-6z" stroke="#5e5e5e" stroke-width="3" fill="#fff"/><use xlink:href="#a" transform="matrix(1,0,0,1,1291.666666666667,616.4173228346456) translate(161.35802469135803 86.84027777777777)"/><use xlink:href="#b" transform="matrix(1,0,0,1,1291.666666666667,616.4173228346456) translate(237.71604938271605 86.84027777777777)"/><use xlink:href="#c" transform="matrix(1,0,0,1,1291.666666666667,616.4173228346456) translate(272.22222222222223 86.84027777777777)"/><use xlink:href="#h" transform="matrix(1,0,0,1,1291.666666666667,616.4173228346456) translate(373.14814814814815 86.84027777777777)"/><path d="M1286.67 837.42c0-3.32 2.68-6 6-6h588c3.3 0 6 2.68 6 6v168c0 3.3-2.7 6-6 6h-588c-3.32 0-6-2.7-6-6z" stroke="#5e5e5e" stroke-width="3" fill="#fff"/><use xlink:href="#a" transform="matrix(1,0,0,1,1291.666666666667,836.4173228346456) translate(139.72222222222223 86.84027777777777)"/><use xlink:href="#b" transform="matrix(1,0,0,1,1291.666666666667,836.4173228346456) translate(216.08024691358025 86.84027777777777)"/><use xlink:href="#i" transform="matrix(1,0,0,1,1291.666666666667,836.4173228346456) translate(250.58641975308643 86.84027777777777)"/><use xlink:href="#j" transform="matrix(1,0,0,1,1291.666666666667,836.4173228346456) translate(335.58641975308643 86.84027777777777)"/><path d="M760 386c0-3.3 2.7-6 6-6h148c3.3 0 6 2.7 6 6v108c0 3.3-2.7 6-6 6H766c-3.3 0-6-2.7-6-6z" stroke="#5e5e5e" stroke-width="3" fill="#fff"/><use xlink:href="#k" transform="matrix(1,0,0,1,772,392) translate(5.129629629629633 53.77777777777778)"/><use xlink:href="#l" transform="matrix(1,0,0,1,772,392) translate(48.21604938271606 53.77777777777778)"/><path d="M760 647.42c0-3.32 2.7-6 6-6h148c3.3 0 6 2.68 6 6v108c0 3.3-2.7 6-6 6H766c-3.3 0-6-2.7-6-6z" stroke="#5e5e5e" stroke-width="3" fill="#a3d977"/><use xlink:href="#m" transform="matrix(1,0,0,1,772,653.4173228346456) translate(34.11111111111111 53.77777777777778)"/><path d="M350 477.5V446c0-3.3 2.7-6 6-6h384" stroke="#5e5e5e" stroke-width="2" fill="none"/><path d="M351 478.5h-2v-1.03h2z" fill="#5e5e5e"/><path d="M755.26 440L741 444.64v-9.28z" stroke="#5e5e5e" stroke-width="2" fill="#5e5e5e"/><path d="M350 662.5v32.92c0 3.3 2.7 6 6 6h384" stroke="#5e5e5e" stroke-width="2" fill="none"/><path d="M351 662.53h-2v-1.03h2z" fill="#5e5e5e"/><path d="M755.26 701.42L741 706.05v-9.27z" stroke="#5e5e5e" stroke-width="2" fill="#5e5e5e"/><path d="M840 502.5v118.92" stroke="#5e5e5e" stroke-width="2" fill="none"/><path d="M841 502.53h-2v-1.03h2z" fill="#5e5e5e"/><path d="M840 636.68l-4.64-14.26h9.28z" stroke="#5e5e5e" stroke-width="2" fill="#5e5e5e"/><path d="M1035.37 441.5H923v-3h112.37zm229.18 0H1093.1v-3h171.45z" fill="#5e5e5e"/><path d="M923.04 441.5h-1.54v-3h1.54zM1280.3 440l-14.25 4.64v-9.28z" fill="#5e5e5e"/><path d="M1285.17 440l-20.62 6.7v-13.4zm-17.62 2.57l7.9-2.57-7.9-2.57z" fill="#5e5e5e"/><use xlink:href="#n" transform="matrix(1,0,0,1,1035.3651931501395,429.3333333333333) translate(0 14.222222222222223)"/><path d="M1033.13 702.42H922.5v-2h110.63zm233.53 0h-175.8v-2h175.8z" fill="#5e5e5e"/><path d="M922.53 702.42h-1.03v-2h1.03zM1281.93 701.42l-14.27 4.63v-9.27z" fill="#5e5e5e"/><path d="M1285.17 701.42l-18.5 6v-12zm-16.5 3.26l10.02-3.26-10.04-3.26z" fill="#5e5e5e"/><use xlink:href="#n" transform="matrix(1,0,0,1,1033.130682141435,690.750656167979) translate(0 14.222222222222223)"/><path d="M1586.67 793.92v17.5" stroke="#5e5e5e" stroke-width="2" fill="none"/><path d="M1587.67 793.94h-2v-1.02h2z" fill="#5e5e5e"/><path d="M1586.67 826.68l-4.64-14.26h9.27z" stroke="#5e5e5e" stroke-width="2" fill="#5e5e5e"/><path d="M1206.67 66c0-3.3 2.68-6 6-6h1488c3.3 0 6 2.7 6 6v1108c0 3.3-2.7 6-6 6h-1488c-3.32 0-6-2.7-6-6z" stroke="#232f3e" stroke-width="3" fill="#fff" fill-opacity="0"/><path d="M1206.67 60h56v56h-56V60z" stroke="#fff" stroke-opacity="0" fill="#232f3e"/><path d="M1224.9 85.87c-.05.48.03.87.15 1.34.13.4.3.7.5 1.07.04.1.08.22.08.34 0 .2-.12.36-.3.46l-.93.62c-.13.08-.25.13-.37.13-.17 0-.33-.06-.45-.2-.2-.2-.37-.43-.54-.7-.16-.25-.28-.53-.45-.86-1.12 1.37-2.64 2.1-4.4 2.06-1.15.06-2.14-.3-2.96-1.08-.78-.8-1.15-1.76-1.1-2.85-.05-1.23.4-2.28 1.35-3.08 1.05-.85 2.3-1.23 3.64-1.16.58 0 1.03.02 1.6.1.58.1 1.1.2 1.73.33v-1.1c.08-.88-.17-1.67-.7-2.37-.74-.56-1.56-.8-2.46-.7-.53 0-1.02.07-1.6.2-.57.13-1.02.3-1.6.5l-.5.2h-.24c-.2 0-.32-.16-.32-.45v-.75c0-.18.04-.34.12-.5.12-.16.25-.26.4-.33.67-.3 1.2-.5 1.9-.67.78-.2 1.48-.3 2.3-.28 1.48-.13 2.8.26 3.9 1.2.94 1.05 1.35 2.28 1.23 3.67zm-6.1 2.28c.6 0 1.08-.1 1.6-.28.6-.2 1.04-.5 1.45-.96.25-.27.4-.56.5-.93.12-.45.16-.84.16-1.3V84c-.52-.1-.94-.17-1.43-.2h-1.4c-.82-.08-1.55.12-2.2.58-.55.45-.8 1.04-.75 1.73-.04.6.12 1.16.53 1.6.45.38 1 .52 1.56.45zm12 1.6c-.2 0-.4-.03-.57-.15-.17-.17-.25-.36-.33-.6l-3.5-11.5-.1-.62c0-.24.1-.37.36-.37h1.47c.2 0 .37.04.58.15.17.18.26.37.3.6l2.5 9.96 2.38-9.93c0-.24.1-.44.3-.6.16-.12.36-.16.57-.15h1.2c.23 0 .4.03.6.15.17.18.25.36.3.6l2.33 9.94 2.55-10c.04-.2.16-.4.33-.58.16-.1.36-.17.57-.14h1.4c.16 0 .32.1.37.3v.31s0 .2-.13.35l-3.6 11.53c-.05.22-.13.42-.3.6-.2.1-.37.14-.57.13h-1.28c-.24.04-.45-.02-.6-.15-.18-.16-.26-.36-.3-.6l-2.3-9.6-2.3 9.6c-.04.24-.12.44-.3.6-.2.13-.4.2-.6.16zm19.22.38c-.82 0-1.52-.07-2.3-.25-.66-.13-1.15-.3-1.72-.6-.2-.1-.37-.23-.45-.42-.1-.14-.13-.28-.13-.43v-.75c0-.3.13-.46.33-.46h.3l.36.16c.58.23 1.03.4 1.6.5.63.14 1.16.2 1.82.2.78.05 1.47-.1 2.17-.5.5-.3.77-.8.73-1.4.04-.4-.12-.76-.37-1.04-.45-.4-.94-.65-1.52-.8l-2.17-.68c-.95-.25-1.73-.73-2.4-1.5-.48-.65-.72-1.35-.72-2.18 0-.6.12-1.08.4-1.6.3-.5.62-.9 1.07-1.22.5-.38 1-.6 1.6-.78.66-.18 1.2-.26 1.9-.25.32-.03.6-.03.98 0l1 .16.8.22.66.26c.17.1.3.22.46.38.08.15.12.3.12.5v.7c0 .32-.12.47-.37.47-.2-.03-.37-.08-.58-.18-.95-.42-1.8-.6-2.88-.58-.7-.04-1.3.1-1.97.4-.5.3-.74.8-.7 1.36 0 .4.12.76.45 1.05.5.4 1 .65 1.6.82l2.1.67c.94.24 1.68.7 2.3 1.44.5.64.7 1.3.7 2.1 0 .63-.13 1.17-.37 1.73-.3.55-.62.95-1.1 1.32-.5.4-1 .66-1.6.84-.75.23-1.4.33-2.15.34zM1252.77 97.48c-5.6 3.82-11.36 5.58-18.15 5.56-8.55.05-15.83-2.74-22.16-8.45-.5-.42 0-1 .5-.68 7.06 4.05 14 5.9 22.2 5.9 6.08-.04 11.28-1.1 16.92-3.47.82-.35 1.5.55.7 1.13z" stroke="#fff" stroke-opacity="0" fill="#fff"/><path d="M1254.83 95.2c-.64-.82-4.16-.38-5.75-.2-.47 0-.54-.36-.1-.66 2.8-1.98 7.4-1.4 8-.74.58.67-.16 5.28-2.8 7.5-.4.32-.77.13-.6-.3.55-1.52 1.87-4.83 1.25-5.6z" stroke="#fff" stroke-opacity="0" fill="#fff"/><use xlink:href="#o" transform="matrix(1,0,0,1,1277.666666666667,80) translate(0 14.4)"/><use xlink:href="#p" transform="matrix(1,0,0,1,1277.666666666667,80) translate(45.3 14.4)"/><path d="M1266.67 180h120v120h-120V180z" stroke="#fff" stroke-opacity="0" stroke-width="2" fill="#3b48cc"/><path d="M1335.34 257.2l2.22-2.28-4.57-4.52 5.1-3.83-1.9-2.57-6.64 4.96-.2.17c-.6.64-.6 1.64.04 2.26zM1353.14 251.75l-5.1 3.85 1.9 2.56 6.63-4.96c.4-.3.6-.7.64-1.18.04-.5-.12-.9-.47-1.25l-5.94-5.76-2.23 2.3z" stroke="#fff" stroke-opacity="0" stroke-width="2" fill="#fff"/><path d="M1337.32 260.95l8.46-19.2 2.92 1.3-8.45 19.2-2.93-1.3z" stroke="#fff" stroke-opacity="0" stroke-width=".81" fill="#fff"/><path d="M1368.08 213.2l-4.45-3.76-7.14-5.84-1.85-1.6c-.34-.32-.68-.4-1-.4h-59.4c0-.88-.66-1.6-1.6-1.6h-6.37c-.84 0-1.6.72-1.6 1.6v16c0 .88.76 1.6 1.6 1.6h6.38v59.2c0 .88.76 1.6 1.6 1.6h17.63c.83 0 1.6-.72 1.6-1.6V216h28.8v11.76l-17.97 7.44h-1.26c-.93 0-1.6.72-1.6 1.6v28.8c0 .88.67 1.6 1.6 1.6h41.57c.92 0 1.6-.72 1.6-1.6v-28.8c0-.88-.68-1.6-1.6-1.6h-1.26l-17.9-7.44V216h21.6c.67 0 1.26-.4 1.5-1.04.26-.64 0-1.36-.5-1.76zm-15.03-8.32l-8.23 7.44-9.9-7.52h18.13zm-41.16 8h-12.77l7.9-6 7.8 5.92zm-15.2 32.72l13.6-12.08v24.16zm12.76 15.6l-13.52 12.08v-24.16zm-13.52-19.2v-24.08l13.52 12.08zm13.7-37.2h19.98l-10 7.52zm22.66 2l7.9 6h-15.87zm-28.05-2l-10 7.6v-7.6zm-13.18 11.2h-3.2v-12.8h3.2V216zm5.62 60.8l13.6-12v12zm13.6-50.4l-11.84-10.4h11.84zm52.74 37.52h-38.38v-25.6h38.38zm-30.4-28.8l11.25-4.64 11.16 4.64zm16.38-22.4l6.46-5.84 7.23 5.92z" stroke="#fff" stroke-opacity="0" stroke-width="2" fill="#fff"/><use xlink:href="#q" transform="matrix(1,0,0,1,1236.666666666667,309) translate(10.895061728395063 17.77777777777778)"/><use xlink:href="#r" transform="matrix(1,0,0,1,1236.666666666667,309) translate(66.82098765432099 17.77777777777778)"/><path d="M2080 146c0-3.3 2.7-6 6-6h528c3.3 0 6 2.7 6 6v968c0 3.3-2.7 6-6 6h-528c-3.3 0-6-2.7-6-6z" fill="#fff" fill-opacity="0"/><path d="M2104 140h12m12 0h12m12 0h12m12 0h12m12 0h12m12 0h12m12 0h12m12 0h12m12 0h12m12 0h12m12 0h12m12 0h12m12 0h12m12 0h12m12 0h12m12 0h12m12 0h12m12 0h12m12 0h12m12 0h12m12 0h12m12 0h6l3.03.82 2.15 2.15.82 3.03v6.05m0 12.1v12.1m0 12.1v12.1m0 12.1v12.1m0 12.1v12.1m0 12.1v12.1m0 12.1v12.1m0 12.1v12.1m0 12.1v12.1m0 12.1v12.1m0 12.1v12.1m0 12.1v12.1m0 12.1v12.1m0 12.1v12.1m0 12.1v12.1m0 12.1v12.1m0 12.1v12.1m0 12.1v12.1m0 12.1v12.1m0 12.1v12.1m0 12.1v12.1m0 12.1v12.1m0 12.1v12.1m0 12.1v12.1m0 12.1v12.1m0 12.1v12.1m0 12.1v12.1m0 12.1v12.1m0 12.1v12.1m0 12.1v12.1m0 12.1v12.1m0 12.1v12.1m0 12.1v12.1m0 12.1v12.1m0 12.1v12.1m0 12.1v12.1m0 12.1v12.1m0 12.1v12.1m0 12.1v12.1m0 12.1v12.1m0 12.1v6.05l-.82 3.03-2.15 2.15-3.03.82h-6m-12 0h-12m-12 0h-12m-12 0h-12m-12 0h-12m-12 0h-12m-12 0h-12m-12 0h-12m-12 0h-12m-12 0h-12m-12 0h-12m-12 0h-12m-12 0h-12m-12 0h-12m-12 0h-12m-12 0h-12m-12 0h-12m-12 0h-12m-12 0h-12m-12 0h-12m-12 0h-12m-12 0h-12m-12 0h-6l-3.03-.82-2.15-2.15-.82-3.03v-6.05m0-12.1v-12.1m0-12.1v-12.1m0-12.1v-12.1m0-12.1v-12.1m0-12.1v-12.1m0-12.1v-12.1m0-12.1v-12.1m0-12.1v-12.1m0-12.1v-12.1m0-12.1v-12.1m0-12.1v-12.1m0-12.1v-12.1m0-12.1v-12.1m0-12.1v-12.1m0-12.1v-12.1m0-12.1v-12.1m0-12.1v-12.1m0-12.1v-12.1m0-12.1v-12.1m0-12.1v-12.1m0-12.1v-12.1m0-12.1v-12.1m0-12.1v-12.1m0-12.1v-12.1m0-12.1v-12.1m0-12.1v-12.1m0-12.1v-12.1m0-12.1v-12.1m0-12.1v-12.1m0-12.1v-12.1m0-12.1v-12.1m0-12.1v-12.1m0-12.1v-12.1m0-12.1v-12.1m0-12.1v-12.1m0-12.1v-12.1m0-12.1v-12.1m0-12.1v-12.1m0-12.1v-12.1m0-12.1V146l.82-3.03 2.15-2.15 3.03-.82h6" stroke="#5a6c86" stroke-width="3" fill="none"/><use xlink:href="#s" transform="matrix(1,0,0,1,2080,159.99999999999994) translate(157.2 14.4)"/><use xlink:href="#t" transform="matrix(1,0,0,1,2080,159.99999999999994) translate(238.95 14.4)"/><use xlink:href="#u" transform="matrix(1,0,0,1,2080,159.99999999999994) translate(303.9 14.4)"/><path d="M1582.43 569.48l-1.63.44h-2.15v-2h1.88l1.37-.37zm-11.82.44h-4.02v-2h4.03zm-12.06 0h-4.03v-2h4.04zm-12.07 0h-4.03v-2h4.03zm-12.07 0h-4.03v-2h4.03zm-12.07 0h-4.03v-2h4.03zm-12.07 0h-4.03v-2h4.03zm-12.07 0h-4.04v-2h4.03zm-12.08 0h-4.03v-2h4.02zm-12.07 0h-4.03v-2h4.03zm-12.07 0h-4.03v-2h4.03zm-12.07 0h-4.02v-2h4.03zm-12.06 0h-4.03v-2h4.04zm-12.07 0h-4.03v-2h4.03zm-12.07 0h-4.03v-2h4.03zm-12.07 0h-4.03v-2h4.03zm-12.07 0h-4.03v-2h4.03zm-12.07 0h-4.04v-2h4.03zm-12.08 0h-4.03v-2h4.02zm-12.07 0h-4.03v-2h4.03zm-12.08 0h-4.02v-2h4.02zm-12.07 0h-4.02v-2h4.02zm-12.07 0h-4.02v-2h4.03zm-12.07 0h-4.02v-2h4.02zm-12.07 0h-4.03v-2h4.02zm-12.08 0h-4.02v-2h4.02zm-12.07 0h-4.02v-2h4.02zm-12.07 0h-4.02v-2h4.02zm-12.07 0h-4v-2h4zm-12.06 0h-4.02v-2h4.02zm-12.07 0h-4.02v-2h4.02zm-12.07 0h-4.02v-2h4.02zm-12.07 0h-4.02v-2h4.03zm-12.07 0h-4.02v-2h4.02zm-266.5 0h-3.06v-2h3.06zm-11.1 0h-4.03v-2h4.02zm-13.96-2h1.88v2h-2.15l-1.62-.44.53-1.93zm694.87-4.87l-.44 1.63-1.93-.52.37-1.38v-1.7h2zm-700-.27l.37 1.38-1.93.52-.43-1.63v-1.92h2zm0-8.8h-2v-3.58h2zm700-.23h-2v-3.67h2zm-700-10.5h-2v-3.58h2zm700-.5h-2v-3.67h2zm-700-10.23h-2v-3.58h2zm700-.77h-2v-1.83h2zm-700-9.96h-2V520h2z" fill="#5e5e5e"/><path d="M1587.67 529.94h-2v-1.02h2zM891.3 519h-9.27l4.64-14.26z" fill="#5e5e5e"/><path d="M892.68 520h-12.03l6.02-18.5zm-9.27-2h6.53l-3.26-10.03z" fill="#5e5e5e"/><use xlink:href="#v" transform="matrix(1,0,0,1,1314.0146788905672,558.250656167979) translate(0 14.222222222222223)"/><use xlink:href="#w" transform="matrix(1,0,0,1,917.8573505273723,558.250656167979) translate(0 14.222222222222223)"/><use xlink:href="#x" transform="matrix(1,0,0,1,917.8573505273723,558.250656167979) translate(49.23456790123457 14.222222222222223)"/><use xlink:href="#y" transform="matrix(1,0,0,1,917.8573505273723,558.250656167979) translate(102.46913580246914 14.222222222222223)"/><use xlink:href="#z" transform="matrix(1,0,0,1,917.8573505273723,558.250656167979) translate(127.16049382716051 14.222222222222223)"/><use xlink:href="#A" transform="matrix(1,0,0,1,917.8573505273723,558.250656167979) translate(152.79012345679013 14.222222222222223)"/><use xlink:href="#B" transform="matrix(1,0,0,1,917.8573505273723,558.250656167979) translate(182.37037037037038 14.222222222222223)"/><path d="M1326.67 380h60v60h-60v-60z" stroke="#fff" stroke-opacity="0" stroke-width="2" fill="#3b48cc"/><path d="M1361 418.6l1.12-1.14-2.3-2.26 2.57-1.9-.97-1.3-3.32 2.48-.08.1c-.3.3-.3.8.02 1.12zM1369.9 415.88l-2.55 1.92.96 1.28 3.32-2.48c.2-.14.3-.35.32-.6 0-.23-.07-.44-.24-.62l-2.97-2.88-1.1 1.15z" stroke="#fff" stroke-opacity="0" stroke-width="2" fill="#fff"/><path d="M1362 420.48l4.22-9.6 1.46.64-4.22 9.6-1.46-.64z" stroke="#fff" stroke-opacity="0" stroke-width=".81" fill="#fff"/><path d="M1377.37 396.6l-2.22-1.88-3.57-2.92-.92-.8c-.17-.16-.34-.2-.5-.2h-29.7c0-.44-.33-.8-.8-.8h-3.2c-.4 0-.8.36-.8.8v8c0 .44.4.8.8.8h3.2v29.6c0 .44.38.8.8.8h8.82c.42 0 .8-.36.8-.8V398h14.4v5.88l-8.98 3.72h-.63c-.47 0-.8.36-.8.8v14.4c0 .44.33.8.8.8h20.78c.47 0 .8-.36.8-.8v-14.4c0-.44-.33-.8-.8-.8h-.63l-8.94-3.72V398h10.8c.33 0 .62-.2.75-.52.12-.32 0-.68-.26-.88zm-7.5-4.16l-4.13 3.72-4.95-3.76h9.06zm-20.6 4h-6.37l3.95-3 3.9 2.96zm-7.6 16.36l6.8-6.04v12.08zm6.4 7.8l-6.77 6.04v-12.08zm-6.77-9.6v-12.04l6.76 6.04zm6.85-18.6h10l-5 3.76zm11.34 1l3.93 3h-7.93zm-14.04-1l-5 3.8v-3.8zm-6.6 5.6h-1.6v-6.4h1.6v6.4zm2.82 30.4l6.8-6v6zm6.8-25.2l-5.92-5.2h5.92zm26.38 18.76h-19.2v-12.8h19.2zm-15.2-14.4l5.62-2.32 5.6 2.32zm8.18-11.2l3.24-2.92 3.6 2.96z" stroke="#fff" stroke-opacity="0" stroke-width="2" fill="#fff"/><use xlink:href="#C" transform="matrix(1,0,0,1,1296.666666666667,449) translate(10.092592592592588 17.77777777777778)"/><use xlink:href="#D" transform="matrix(1,0,0,1,1296.666666666667,449) translate(26.7283950617284 44.44444444444444)"/><path d="M1320 649.42h60v60h-60v-60z" stroke="#fff" stroke-opacity="0" stroke-width="2" fill="#3b48cc"/><path d="M1354.34 688.02l1.1-1.14-2.28-2.26 2.56-1.92-.96-1.28-3.3 2.48c-.05.03-.08.05-.1.08-.32.32-.3.82 0 1.13zM1363.24 685.3l-2.56 1.92.96 1.28 3.3-2.48c.2-.15.32-.35.33-.6.02-.24-.07-.45-.24-.62l-2.97-2.88-1.1 1.15z" stroke="#fff" stroke-opacity="0" stroke-width="2" fill="#fff"/><path d="M1355.33 689.9l4.23-9.6 1.46.64-4.23 9.6-1.47-.65z" stroke="#fff" stroke-opacity="0" stroke-width=".81" fill="#fff"/><path d="M1370.7 666.02l-2.22-1.88-3.57-2.92-.9-.8c-.18-.16-.35-.2-.5-.2h-29.7c0-.44-.34-.8-.8-.8h-3.2c-.4 0-.8.36-.8.8v8c0 .44.4.8.8.8h3.2v29.6c0 .44.38.8.8.8h8.8c.43 0 .8-.36.8-.8v-31.2h14.42v5.88l-9 3.72h-.62c-.46 0-.8.36-.8.8v14.4c0 .44.34.8.8.8h20.8c.45 0 .78-.36.78-.8v-14.4c0-.44-.33-.8-.8-.8h-.62l-8.95-3.72v-5.88h10.8c.34 0 .63-.2.76-.52s0-.68-.25-.88zm-7.5-4.16l-4.12 3.72-4.96-3.76h9.07zm-20.6 4h-6.37l3.95-3 3.9 2.96zm-7.6 16.36l6.82-6.04v12.08zm6.4 7.8l-6.76 6.04v-12.08zm-6.76-9.6v-12.04l6.76 6.04zm6.84-18.6h10l-5 3.76zm11.34 1l3.95 3h-7.94zm-14.03-1l-5 3.8v-3.8zm-6.6 5.6h-1.6v-6.4h1.6v6.4zm2.8 30.4l6.82-6v6zm6.82-25.2l-5.92-5.2h5.92zm26.37 18.76H1349v-12.8h19.2zm-15.2-14.4l5.6-2.32 5.6 2.32zm8.18-11.2l3.23-2.92 3.62 2.96z" stroke="#fff" stroke-opacity="0" stroke-width="2" fill="#fff"/><use xlink:href="#C" transform="matrix(1,0,0,1,1290,718.4173228346456) translate(10.092592592592588 17.77777777777778)"/><use xlink:href="#D" transform="matrix(1,0,0,1,1290,718.4173228346456) translate(26.7283950617284 44.44444444444444)"/><path d="M1320 860h60v60h-60v-60z" stroke="#fff" stroke-opacity="0" stroke-width="2" fill="#3b48cc"/><path d="M1354.34 898.6l1.1-1.14-2.28-2.26 2.56-1.9-.96-1.3-3.3 2.48c-.05.03-.08.05-.1.1-.32.3-.3.8 0 1.12zM1363.24 895.88l-2.56 1.92.96 1.28 3.3-2.48c.2-.14.32-.35.33-.6.02-.23-.07-.44-.24-.62l-2.97-2.88-1.1 1.15z" stroke="#fff" stroke-opacity="0" stroke-width="2" fill="#fff"/><path d="M1355.33 900.48l4.23-9.6 1.46.64-4.23 9.6-1.47-.64z" stroke="#fff" stroke-opacity="0" stroke-width=".81" fill="#fff"/><path d="M1370.7 876.6l-2.22-1.88-3.57-2.92-.9-.8c-.18-.16-.35-.2-.5-.2h-29.7c0-.44-.34-.8-.8-.8h-3.2c-.4 0-.8.36-.8.8v8c0 .44.4.8.8.8h3.2v29.6c0 .44.38.8.8.8h8.8c.43 0 .8-.36.8-.8V878h14.42v5.88l-9 3.72h-.62c-.46 0-.8.36-.8.8v14.4c0 .44.34.8.8.8h20.8c.45 0 .78-.36.78-.8v-14.4c0-.44-.33-.8-.8-.8h-.62l-8.95-3.72V878h10.8c.34 0 .63-.2.76-.52s0-.68-.25-.88zm-7.5-4.16l-4.12 3.72-4.96-3.76h9.07zm-20.6 4h-6.37l3.95-3 3.9 2.96zm-7.6 16.36l6.82-6.04v12.08zm6.4 7.8l-6.76 6.04v-12.08zm-6.76-9.6v-12.04l6.76 6.04zm6.84-18.6h10l-5 3.76zm11.34 1l3.95 3h-7.94zm-14.03-1l-5 3.8v-3.8zm-6.6 5.6h-1.6v-6.4h1.6v6.4zm2.8 30.4l6.82-6v6zm6.82-25.2l-5.92-5.2h5.92zm26.37 18.76H1349v-12.8h19.2zm-15.2-14.4l5.6-2.32 5.6 2.32zm8.18-11.2l3.23-2.92 3.62 2.96z" stroke="#fff" stroke-opacity="0" stroke-width="2" fill="#fff"/><use xlink:href="#C" transform="matrix(1,0,0,1,1290,929) translate(10.092592592592588 17.77777777777778)"/><use xlink:href="#D" transform="matrix(1,0,0,1,1290,929) translate(26.7283950617284 44.44444444444444)"/><path d="M2300 761.42h120v120h-120v-120z" stroke="#fff" stroke-opacity="0" stroke-width="2" fill="#d86613"/><path d="M2360 864.63c-.3 0-.5-.08-.8-.17l-36.8-21.26c-.5-.35-.8-.78-.8-1.4V799.3c0-.6.3-1.12.8-1.38l33.63-19.45c.5-.35 1.03-.35 1.54 0 .52.26.8.78.8 1.38v18.4c0 .62-.28 1.05-.8 1.4l-16.77 9.77v22.2l19.2 11.08 16.77-9.6c.52-.26 1.1-.26 1.55 0l16.03 9.25c.74.43 1.03 1.38.6 2.16-.15.25-.3.42-.6.6l-33.54 19.36c-.28.1-.5.17-.8.17zm-35.16-23.77l35.16 20.32 30.38-17.55-12.8-7.44-16.77 9.76c-.5.26-1.1.26-1.6 0l-20.83-12c-.5-.36-.8-.8-.8-1.4v-24.03c0-.6.3-1.12.8-1.38l16.85-9.77V782.6l-30.38 17.55z" stroke="#fff" stroke-opacity="0" stroke-width="2" fill="#fff"/><path d="M2396.82 839.7c-.3 0-.55-.06-.8-.18l-16.02-9.2c-.52-.3-.77-.86-.74-1.4v-19.5l-16.85-9.58c-.5-.3-.8-.8-.8-1.4v-18.47c0-.6.3-1.1.8-1.4.52-.25 1.08-.25 1.6 0l33.6 19.3c.5.32.8.8.8 1.42v38.8c0 .87-.7 1.6-1.58 1.6zM2382.4 828l12.8 7.35V800.2l-30.4-17.47v14.78l16.78 9.64c.52.25.8.74.8 1.35z" stroke="#fff" stroke-opacity="0" stroke-width="2" fill="#fff"/><path d="M2352 832.6v-24h3.2v10.92l10.4-10.92h4.23l-10.85 11.7 11.8 12.3h-4.38l-11.2-11.2v11.2z" stroke="#fff" stroke-opacity="0" stroke-width="2" fill="#fff"/><use xlink:href="#E" transform="matrix(1,0,0,1,2270,890.4173228346456) translate(13.549382716049394 17.77777777777778)"/><use xlink:href="#F" transform="matrix(1,0,0,1,2270,890.4173228346456) translate(101.14197530864199 17.77777777777778)"/><use xlink:href="#G" transform="matrix(1,0,0,1,2270,890.4173228346456) translate(1.882716049382708 44.44444444444444)"/><use xlink:href="#H" transform="matrix(1,0,0,1,2270,890.4173228346456) translate(104.16666666666667 44.44444444444444)"/><use xlink:href="#I" transform="matrix(1,0,0,1,2270,890.4173228346456) translate(17.22222222222223 71.11111111111111)"/><use xlink:href="#J" transform="matrix(1,0,0,1,2270,890.4173228346456) translate(49.25925925925927 71.11111111111111)"/><path d="M1889.17 701.42h9.8m9.8 0h19.58m9.8 0h19.6m9.8 0h9.78l3.03-.82 2.15-2.15.83-3.03v-9.9m0-9.9v-19.8m0-9.92V636l.82-3.03 2.16-2.15 3.03-.82h11.78m11.8 0h23.54m11.78 0H2060" stroke="#5e5e5e" stroke-width="2" fill="none"/><path d="M1889.2 702.42h-1.03v-2h1.02z" fill="#5e5e5e"/><path d="M2075.26 630l-14.26 4.64v-9.28z" stroke="#5e5e5e" stroke-width="2" fill="#5e5e5e"/><path d="M1889.17 921.42h9.47m9.47 0h18.96m9.47 0h18.94m9.47 0h18.95m9.46 0h18.95m9.48 0h18.94m9.47 0h18.94m9.47 0h9.48l3.03-.82 2.16-2.15.82-3.03v-9.78m0-9.78V876.3m0-9.77v-19.56m0-9.77v-9.78l.82-3.03 2.16-2.16 3.02-.82h10.08m10.08 0h20.16m10.08 0h20.15m10.08 0h20.17m10.08 0h20.16m10.08 0h20.16m10.08 0h10.08" stroke="#5e5e5e" stroke-width="2" fill="none"/><path d="M1889.2 922.42h-1.03v-2h1.02z" fill="#5e5e5e"/><path d="M2296.76 821.42l-14.26 4.63v-9.27z" stroke="#5e5e5e" stroke-width="2" fill="#5e5e5e"/><path d="M2120 622c0-16.57 13.43-30 30-30h420c16.57 0 30 13.43 30 30v448c0 16.57-13.43 30-30 30h-420c-16.57 0-30-13.43-30-30z" stroke="#474747" fill-opacity="0"/><path d="M2181.97 580.24v-5.9c0-7.25-5.88-13.13-13.12-13.13-7.24 0-13.12 5.9-13.12 13.14v5.9h6.64v-5.9c0-3.58 2.9-6.5 6.48-6.5 3.57 0 6.48 2.92 6.48 6.5v5.9h6.64z" fill="#876a22"/><path d="M2181.98 580.26h5.42v20.83H2150v-20.84h5.72v-7.1c0-7.28 5.87-13.16 13.13-13.16 7.26 0 13.13 5.88 13.13 13.15v7.1zm-6.66 0v-7.1c0-3.6-2.88-6.5-6.47-6.5-3.6 0-6.47 2.9-6.47 6.5v7.1h12.94z" fill="#daa835"/><path d="M2150 601.1h37.4v.9H2150z" fill="#876a22"/><use xlink:href="#K" transform="matrix(1,0,0,1,2120,1070) translate(180.7716049382716 11.11111111111111)"/><use xlink:href="#L" transform="matrix(1,0,0,1,2120,1070) translate(232.56172839506172 11.11111111111111)"/><path d="M1226.67 1346c0-3.3 2.68-6 6-6H1934c3.3 0 6 2.7 6 6v968c0 3.3-2.7 6-6 6h-701.33c-3.32 0-6-2.7-6-6z" stroke="#5e5e5e" stroke-width="3" fill="#3b48cc" fill-opacity=".15"/><path d="M1286.67 1553.42c0-3.32 2.68-6 6-6h588c3.3 0 6 2.68 6 6v168c0 3.3-2.7 6-6 6h-588c-3.32 0-6-2.7-6-6z" stroke="#5e5e5e" stroke-width="3" fill="#fff"/><use xlink:href="#M" transform="matrix(1,0,0,1,1291.666666666667,1552.4173228346456) translate(176.14197530864197 86.84027777777777)"/><use xlink:href="#b" transform="matrix(1,0,0,1,1291.666666666667,1552.4173228346456) translate(236.51234567901236 86.84027777777777)"/><use xlink:href="#c" transform="matrix(1,0,0,1,1291.666666666667,1552.4173228346456) translate(271.01851851851853 86.84027777777777)"/><use xlink:href="#d" transform="matrix(1,0,0,1,1291.666666666667,1552.4173228346456) translate(371.94444444444446 86.84027777777777)"/><path d="M40 1686c0-3.3 2.7-6 6-6h608c3.3 0 6 2.7 6 6v168c0 3.3-2.7 6-6 6H46c-3.3 0-6-2.7-6-6z" stroke="#5e5e5e" stroke-width="3" fill="#fff"/><use xlink:href="#N" transform="matrix(1,0,0,1,45,1685) translate(160.70987654320993 76.21527777777777)"/><use xlink:href="#f" transform="matrix(1,0,0,1,45,1685) translate(220.55555555555554 102.88194444444446)"/><use xlink:href="#g" transform="matrix(1,0,0,1,45,1685) translate(292.09876543209873 102.88194444444446)"/><path d="M100.08 1806.6c0 .48-.48.96-1.2.96-.84 0-1.32-.36-1.32-.96 0-.48.48-.84 1.2-.84.72-.12 1.32.24 1.32.84zm-7.44-1.08c-.24.48.24 1.08.96 1.2.72.24 1.44 0 1.56-.48.12-.48-.36-1.08-1.08-1.32-.6-.12-1.32.12-1.44.6zm10.68-.48c-.72.24-1.2.72-1.08 1.32 0 .48.6.72 1.44.6.6-.24 1.08-.6 1.08-1.2-.12-.48-.72-.72-1.44-.72zm15.96-95.04c-33.6 0-59.28 26.16-59.28 60.6 0 27.48 16.92 51 41.04 59.28 3.12.6 4.2-1.32 4.2-3 0-1.56-.12-9.96-.12-15.24 0 0-16.92 3.72-20.52-7.32 0 0-2.76-7.32-6.72-9.12 0 0-5.52-3.96.36-3.84 0 0 6.12.48 9.36 6.36 5.28 9.6 14.16 6.84 17.64 5.28.6-3.96 2.16-6.72 3.84-8.4-13.44-1.56-27.12-3.6-27.12-27.48 0-6.72 1.8-10.2 5.76-14.52-.72-1.68-2.76-8.28.6-16.92 5.04-1.56 16.68 6.72 16.68 6.72 4.8-1.44 10.08-2.16 15.24-2.16s10.32.72 15.12 2.16c0 0 11.64-8.28 16.68-6.72 3.36 8.64 1.32 15.24.72 16.92 3.84 4.32 6.24 7.8 6.24 14.52 0 24-14.28 25.92-27.84 27.48 2.28 1.92 4.08 5.64 4.08 11.52v20.76c0 1.56 1.08 3.48 4.2 3 24.12-8.28 40.56-31.8 40.56-59.28 0-34.44-27.24-60.6-60.72-60.6zm-35.76 85.56c-.36.24-.24.84.12 1.32.48.36.96.6 1.32.24.24-.24.24-.84-.24-1.32-.36-.36-.84-.6-1.2-.24zm-2.64-2.04c-.12.36.12.72.6.96.36.36.84.24 1.08-.12.12-.36-.12-.72-.6-.96-.48-.12-.84-.12-1.08.12zm7.92 8.88c-.48.36-.24 1.08.24 1.56.6.6 1.32.6 1.56.24.36-.36.24-1.08-.24-1.56-.6-.6-1.32-.6-1.56-.24zm-2.76-3.6c-.48.24-.48.84 0 1.44.36.6.96.84 1.32.6.36-.36.36-.96 0-1.56-.36-.6-.96-.84-1.32-.48z" stroke="#000" stroke-opacity="0" stroke-width=".29"/><path d="M1286.67 1817.42c0-3.32 2.68-6 6-6h588c3.3 0 6 2.68 6 6v168c0 3.3-2.7 6-6 6h-588c-3.32 0-6-2.7-6-6z" stroke="#5e5e5e" stroke-width="3" fill="#fff"/><use xlink:href="#M" transform="matrix(1,0,0,1,1291.666666666667,1816.4173228346456) translate(169.35185185185185 86.84027777777777)"/><use xlink:href="#b" transform="matrix(1,0,0,1,1291.666666666667,1816.4173228346456) translate(229.72222222222223 86.84027777777777)"/><use xlink:href="#c" transform="matrix(1,0,0,1,1291.666666666667,1816.4173228346456) translate(264.2283950617284 86.84027777777777)"/><use xlink:href="#h" transform="matrix(1,0,0,1,1291.666666666667,1816.4173228346456) translate(365.15432098765433 86.84027777777777)"/><path d="M1286.67 2037.42c0-3.32 2.68-6 6-6h588c3.3 0 6 2.68 6 6v168c0 3.3-2.7 6-6 6h-588c-3.32 0-6-2.7-6-6z" stroke="#5e5e5e" stroke-width="3" fill="#fff"/><use xlink:href="#M" transform="matrix(1,0,0,1,1291.666666666667,2036.4173228346453) translate(156.32716049382717 86.84027777777777)"/><use xlink:href="#b" transform="matrix(1,0,0,1,1291.666666666667,2036.4173228346453) translate(216.69753086419755 86.84027777777777)"/><use xlink:href="#O" transform="matrix(1,0,0,1,1291.666666666667,2036.4173228346453) translate(251.2037037037037 86.84027777777777)"/><use xlink:href="#j" transform="matrix(1,0,0,1,1291.666666666667,2036.4173228346453) translate(318.9814814814815 86.84027777777777)"/><path d="M760 1586c0-3.3 2.7-6 6-6h148c3.3 0 6 2.7 6 6v108c0 3.3-2.7 6-6 6H766c-3.3 0-6-2.7-6-6z" stroke="#5e5e5e" stroke-width="3" fill="#fff"/><use xlink:href="#k" transform="matrix(1,0,0,1,772.0000000000001,1592) translate(5.129629629629633 53.77777777777778)"/><use xlink:href="#l" transform="matrix(1,0,0,1,772.0000000000001,1592) translate(48.21604938271606 53.77777777777778)"/><path d="M760 1847.42c0-3.32 2.7-6 6-6h148c3.3 0 6 2.68 6 6v108c0 3.3-2.7 6-6 6H766c-3.3 0-6-2.7-6-6z" stroke="#5e5e5e" stroke-width="3" fill="#a3d977"/><use xlink:href="#m" transform="matrix(1,0,0,1,772.0000000000001,1853.4173228346456) translate(34.11111111111111 53.77777777777778)"/><path d="M350 1677.5V1646c0-3.3 2.7-6 6-6h384" stroke="#5e5e5e" stroke-width="2" fill="none"/><path d="M351 1678.5h-2v-1.03h2z" fill="#5e5e5e"/><path d="M755.26 1640l-14.26 4.64v-9.28z" stroke="#5e5e5e" stroke-width="2" fill="#5e5e5e"/><path d="M350 1862.5v32.92c0 3.3 2.7 6 6 6h384" stroke="#5e5e5e" stroke-width="2" fill="none"/><path d="M351 1862.53h-2v-1.03h2z" fill="#5e5e5e"/><path d="M755.26 1901.42l-14.26 4.63v-9.27z" stroke="#5e5e5e" stroke-width="2" fill="#5e5e5e"/><path d="M840 1702.5v118.92" stroke="#5e5e5e" stroke-width="2" fill="none"/><path d="M841 1702.53h-2v-1.03h2z" fill="#5e5e5e"/><path d="M840 1836.68l-4.64-14.26h9.28z" stroke="#5e5e5e" stroke-width="2" fill="#5e5e5e"/><path d="M1035.37 1641.5H923v-3h112.37zm229.18 0H1093.1v-3h171.45z" fill="#5e5e5e"/><path d="M923.04 1641.5h-1.54v-3h1.54zM1280.3 1640l-14.25 4.64v-9.28z" fill="#5e5e5e"/><path d="M1285.17 1640l-20.62 6.7v-13.4zm-17.62 2.57l7.9-2.57-7.9-2.57z" fill="#5e5e5e"/><use xlink:href="#n" transform="matrix(1,0,0,1,1035.3651931501395,1629.3333333333333) translate(0 14.222222222222223)"/><path d="M1033.13 1902.42H922.5v-2h110.63zm233.53 0h-175.8v-2h175.8z" fill="#5e5e5e"/><path d="M922.53 1902.42h-1.03v-2h1.03zM1281.93 1901.42l-14.27 4.63v-9.27z" fill="#5e5e5e"/><path d="M1285.17 1901.42l-18.5 6v-12zm-16.5 3.26l10.02-3.26-10.04-3.26z" fill="#5e5e5e"/><use xlink:href="#n" transform="matrix(1,0,0,1,1033.130682141435,1890.7506561679788) translate(0 14.222222222222223)"/><path d="M1586.67 1993.92v17.5" stroke="#5e5e5e" stroke-width="2" fill="none"/><path d="M1587.67 1993.94h-2v-1.02h2z" fill="#5e5e5e"/><path d="M1586.67 2026.68l-4.64-14.26h9.27z" stroke="#5e5e5e" stroke-width="2" fill="#5e5e5e"/><path d="M1206.67 1266c0-3.3 2.68-6 6-6h1488c3.3 0 6 2.7 6 6v1108c0 3.3-2.7 6-6 6h-1488c-3.32 0-6-2.7-6-6z" stroke="#232f3e" stroke-width="3" fill="#fff" fill-opacity="0"/><path d="M1206.67 1260h56v56h-56v-56z" stroke="#fff" stroke-opacity="0" fill="#232f3e"/><path d="M1224.9 1285.87c-.05.48.03.87.15 1.34.13.4.3.7.5 1.07.04.1.08.22.08.34 0 .2-.12.36-.3.46l-.93.62c-.13.08-.25.13-.37.13-.17 0-.33-.06-.45-.2-.2-.2-.37-.43-.54-.7-.16-.25-.28-.53-.45-.86-1.12 1.37-2.64 2.1-4.4 2.06-1.15.06-2.14-.3-2.96-1.08-.78-.8-1.15-1.76-1.1-2.85-.05-1.23.4-2.28 1.35-3.08 1.05-.85 2.3-1.23 3.64-1.16.58 0 1.03.02 1.6.1.58.1 1.1.2 1.73.33v-1.1c.08-.88-.17-1.67-.7-2.37-.74-.56-1.56-.8-2.46-.7-.53 0-1.02.07-1.6.2-.57.13-1.02.3-1.6.5l-.5.2h-.24c-.2 0-.32-.16-.32-.45v-.75c0-.18.04-.34.12-.5.12-.16.25-.26.4-.33.67-.3 1.2-.5 1.9-.67.78-.2 1.48-.3 2.3-.28 1.48-.13 2.8.26 3.9 1.2.94 1.05 1.35 2.28 1.23 3.67zm-6.1 2.28c.6 0 1.08-.1 1.6-.28.6-.2 1.04-.5 1.45-.96.25-.27.4-.56.5-.93.12-.45.16-.84.16-1.3v-.67c-.52-.1-.94-.17-1.43-.2h-1.4c-.82-.08-1.55.12-2.2.58-.55.45-.8 1.04-.75 1.73-.04.6.12 1.16.53 1.6.45.38 1 .52 1.56.45zm12 1.6c-.2 0-.4-.03-.57-.15-.17-.17-.25-.36-.33-.6l-3.5-11.5-.1-.62c0-.24.1-.37.36-.37h1.47c.2 0 .37.04.58.15.17.18.26.37.3.6l2.5 9.96 2.38-9.93c0-.24.1-.44.3-.6.16-.12.36-.16.57-.15h1.2c.23 0 .4.03.6.15.17.18.25.36.3.6l2.33 9.94 2.55-10c.04-.2.16-.4.33-.58.16-.1.36-.17.57-.14h1.4c.16 0 .32.1.37.3v.31s0 .2-.13.35l-3.6 11.53c-.05.22-.13.42-.3.6-.2.1-.37.14-.57.13h-1.28c-.24.04-.45-.02-.6-.15-.18-.16-.26-.36-.3-.6l-2.3-9.6-2.3 9.6c-.04.24-.12.44-.3.6-.2.13-.4.2-.6.16zm19.22.38c-.82 0-1.52-.07-2.3-.25-.66-.13-1.15-.3-1.72-.6-.2-.1-.37-.23-.45-.42-.1-.14-.13-.28-.13-.43v-.75c0-.3.13-.46.33-.46h.3l.36.16c.58.23 1.03.4 1.6.5.63.14 1.16.2 1.82.2.78.05 1.47-.1 2.17-.5.5-.3.77-.8.73-1.4.04-.4-.12-.76-.37-1.04-.45-.4-.94-.65-1.52-.8l-2.17-.68c-.95-.25-1.73-.73-2.4-1.5-.48-.65-.72-1.35-.72-2.18 0-.6.12-1.08.4-1.6.3-.5.62-.9 1.07-1.22.5-.38 1-.6 1.6-.78.66-.18 1.2-.26 1.9-.25.32-.03.6-.03.98 0l1 .16.8.22.66.26c.17.1.3.22.46.38.08.15.12.3.12.5v.7c0 .32-.12.47-.37.47-.2-.03-.37-.08-.58-.18-.95-.42-1.8-.6-2.88-.58-.7-.04-1.3.1-1.97.4-.5.3-.74.8-.7 1.36 0 .4.12.76.45 1.05.5.4 1 .65 1.6.82l2.1.67c.94.24 1.68.7 2.3 1.44.5.64.7 1.3.7 2.1 0 .63-.13 1.17-.37 1.73-.3.55-.62.95-1.1 1.32-.5.4-1 .66-1.6.84-.75.23-1.4.33-2.15.34zM1252.77 1297.48c-5.6 3.82-11.36 5.58-18.15 5.56-8.55.05-15.83-2.74-22.16-8.45-.5-.42 0-1 .5-.68 7.06 4.05 14 5.9 22.2 5.9 6.08-.04 11.28-1.1 16.92-3.47.82-.35 1.5.55.7 1.13z" stroke="#fff" stroke-opacity="0" fill="#fff"/><path d="M1254.83 1295.2c-.64-.82-4.16-.38-5.75-.2-.47 0-.54-.36-.1-.66 2.8-1.98 7.4-1.4 8-.74.58.67-.16 5.28-2.8 7.5-.4.32-.77.13-.6-.3.55-1.52 1.87-4.83 1.25-5.6z" stroke="#fff" stroke-opacity="0" fill="#fff"/><use xlink:href="#o" transform="matrix(1,0,0,1,1277.666666666667,1280) translate(0 14.4)"/><use xlink:href="#p" transform="matrix(1,0,0,1,1277.666666666667,1280) translate(45.3 14.4)"/><path d="M1266.67 1380h120v120h-120v-120z" stroke="#fff" stroke-opacity="0" stroke-width="2" fill="#3b48cc"/><path d="M1335.34 1457.2l2.22-2.28-4.57-4.52 5.1-3.83-1.9-2.57-6.64 4.96-.2.17c-.6.64-.6 1.64.04 2.26zM1353.14 1451.75l-5.1 3.85 1.9 2.56 6.63-4.96c.4-.3.6-.7.64-1.18.04-.5-.12-.9-.47-1.25l-5.94-5.76-2.23 2.3z" stroke="#fff" stroke-opacity="0" stroke-width="2" fill="#fff"/><path d="M1337.32 1460.95l8.46-19.2 2.92 1.3-8.45 19.2-2.93-1.3z" stroke="#fff" stroke-opacity="0" stroke-width=".81" fill="#fff"/><path d="M1368.08 1413.2l-4.45-3.76-7.14-5.84-1.85-1.6c-.34-.32-.68-.4-1-.4h-59.4c0-.88-.66-1.6-1.6-1.6h-6.37c-.84 0-1.6.72-1.6 1.6v16c0 .88.76 1.6 1.6 1.6h6.38v59.2c0 .88.76 1.6 1.6 1.6h17.63c.83 0 1.6-.72 1.6-1.6V1416h28.8v11.76l-17.97 7.44h-1.26c-.93 0-1.6.72-1.6 1.6v28.8c0 .88.67 1.6 1.6 1.6h41.57c.92 0 1.6-.72 1.6-1.6v-28.8c0-.88-.68-1.6-1.6-1.6h-1.26l-17.9-7.44V1416h21.6c.67 0 1.26-.4 1.5-1.04.26-.64 0-1.36-.5-1.76zm-15.03-8.32l-8.23 7.44-9.9-7.52h18.13zm-41.16 8h-12.77l7.9-6 7.8 5.92zm-15.2 32.72l13.6-12.08v24.16zm12.76 15.6l-13.52 12.08v-24.16zm-13.52-19.2v-24.08l13.52 12.08zm13.7-37.2h19.98l-10 7.52zm22.66 2l7.9 6h-15.87zm-28.05-2l-10 7.6v-7.6zm-13.18 11.2h-3.2v-12.8h3.2v12.8zm5.62 60.8l13.6-12v12zm13.6-50.4l-11.84-10.4h11.84zm52.74 37.52h-38.38v-25.6h38.38zm-30.4-28.8l11.25-4.64 11.16 4.64zm16.38-22.4l6.46-5.84 7.23 5.92z" stroke="#fff" stroke-opacity="0" stroke-width="2" fill="#fff"/><use xlink:href="#q" transform="matrix(1,0,0,1,1236.666666666667,1509) translate(10.895061728395063 17.77777777777778)"/><use xlink:href="#r" transform="matrix(1,0,0,1,1236.666666666667,1509) translate(66.82098765432099 17.77777777777778)"/><path d="M1582.43 1769.48l-1.63.44h-2.15v-2h1.88l1.37-.37zm-11.82.44h-4.02v-2h4.03zm-12.06 0h-4.03v-2h4.04zm-12.07 0h-4.03v-2h4.03zm-12.07 0h-4.03v-2h4.03zm-12.07 0h-4.03v-2h4.03zm-12.07 0h-4.03v-2h4.03zm-12.07 0h-4.04v-2h4.03zm-12.08 0h-4.03v-2h4.02zm-12.07 0h-4.03v-2h4.03zm-12.07 0h-4.03v-2h4.03zm-12.07 0h-4.02v-2h4.03zm-12.06 0h-4.03v-2h4.04zm-12.07 0h-4.03v-2h4.03zm-12.07 0h-4.03v-2h4.03zm-12.07 0h-4.03v-2h4.03zm-12.07 0h-4.03v-2h4.03zm-12.07 0h-4.04v-2h4.03zm-12.08 0h-4.03v-2h4.02zm-12.07 0h-4.03v-2h4.03zm-12.08 0h-4.02v-2h4.02zm-12.07 0h-4.02v-2h4.02zm-12.07 0h-4.02v-2h4.03zm-12.07 0h-4.02v-2h4.02zm-12.07 0h-4.03v-2h4.02zm-12.08 0h-4.02v-2h4.02zm-12.07 0h-4.02v-2h4.02zm-12.07 0h-4.02v-2h4.02zm-12.07 0h-4v-2h4zm-12.06 0h-4.02v-2h4.02zm-12.07 0h-4.02v-2h4.02zm-12.07 0h-4.02v-2h4.02zm-12.07 0h-4.02v-2h4.03zm-12.07 0h-4.02v-2h4.02zm-266.5 0h-3.06v-2h3.06zm-11.1 0h-4.03v-2h4.02zm-13.96-2h1.88v2h-2.15l-1.62-.44.53-1.93zm694.87-4.87l-.44 1.63-1.93-.52.37-1.38v-1.7h2zm-700-.27l.37 1.38-1.93.52-.43-1.63v-1.92h2zm0-8.8h-2v-3.58h2zm700-.23h-2v-3.67h2zm-700-10.5h-2v-3.58h2zm700-.5h-2v-3.67h2zm-700-10.23h-2v-3.58h2zm700-.77h-2v-1.83h2zm-700-9.96h-2v-1.8h2z" fill="#5e5e5e"/><path d="M1587.67 1729.94h-2v-1.02h2zM891.3 1719h-9.27l4.64-14.26z" fill="#5e5e5e"/><path d="M892.68 1720h-12.03l6.02-18.5zm-9.27-2h6.53l-3.26-10.03z" fill="#5e5e5e"/><g><use xlink:href="#v" transform="matrix(1,0,0,1,1314.0146788905674,1758.2506561679788) translate(0 14.222222222222223)"/></g><g><use xlink:href="#w" transform="matrix(1,0,0,1,917.8573505273723,1758.2506561679788) translate(0 14.222222222222223)"/><use xlink:href="#x" transform="matrix(1,0,0,1,917.8573505273723,1758.2506561679788) translate(49.23456790123457 14.222222222222223)"/><use xlink:href="#y" transform="matrix(1,0,0,1,917.8573505273723,1758.2506561679788) translate(102.46913580246914 14.222222222222223)"/><use xlink:href="#z" transform="matrix(1,0,0,1,917.8573505273723,1758.2506561679788) translate(127.16049382716051 14.222222222222223)"/><use xlink:href="#A" transform="matrix(1,0,0,1,917.8573505273723,1758.2506561679788) translate(152.79012345679013 14.222222222222223)"/><use xlink:href="#B" transform="matrix(1,0,0,1,917.8573505273723,1758.2506561679788) translate(182.37037037037038 14.222222222222223)"/></g><path d="M1326.67 1580h60v60h-60v-60z" stroke="#fff" stroke-opacity="0" stroke-width="2" fill="#3b48cc"/><path d="M1361 1618.6l1.12-1.14-2.3-2.26 2.57-1.9-.97-1.3-3.32 2.48-.08.1c-.3.3-.3.8.02 1.12zM1369.9 1615.88l-2.55 1.92.96 1.28 3.32-2.48c.2-.14.3-.35.32-.6 0-.23-.07-.44-.24-.62l-2.97-2.88-1.1 1.15z" stroke="#fff" stroke-opacity="0" stroke-width="2" fill="#fff"/><path d="M1362 1620.48l4.22-9.6 1.46.64-4.22 9.6-1.46-.64z" stroke="#fff" stroke-opacity="0" stroke-width=".81" fill="#fff"/><path d="M1377.37 1596.6l-2.22-1.88-3.57-2.92-.92-.8c-.17-.16-.34-.2-.5-.2h-29.7c0-.44-.33-.8-.8-.8h-3.2c-.4 0-.8.36-.8.8v8c0 .44.4.8.8.8h3.2v29.6c0 .44.38.8.8.8h8.82c.42 0 .8-.36.8-.8V1598h14.4v5.88l-8.98 3.72h-.63c-.47 0-.8.36-.8.8v14.4c0 .44.33.8.8.8h20.78c.47 0 .8-.36.8-.8v-14.4c0-.44-.33-.8-.8-.8h-.63l-8.94-3.72V1598h10.8c.33 0 .62-.2.75-.52.12-.32 0-.68-.26-.88zm-7.5-4.16l-4.13 3.72-4.95-3.76h9.06zm-20.6 4h-6.37l3.95-3 3.9 2.96zm-7.6 16.36l6.8-6.04v12.08zm6.4 7.8l-6.77 6.04v-12.08zm-6.77-9.6v-12.04l6.76 6.04zm6.85-18.6h10l-5 3.76zm11.34 1l3.93 3h-7.93zm-14.04-1l-5 3.8v-3.8zm-6.6 5.6h-1.6v-6.4h1.6v6.4zm2.82 30.4l6.8-6v6zm6.8-25.2l-5.92-5.2h5.92zm26.38 18.76h-19.2v-12.8h19.2zm-15.2-14.4l5.62-2.32 5.6 2.32zm8.18-11.2l3.24-2.92 3.6 2.96z" stroke="#fff" stroke-opacity="0" stroke-width="2" fill="#fff"/><g><use xlink:href="#C" transform="matrix(1,0,0,1,1296.666666666667,1649) translate(10.092592592592588 17.77777777777778)"/><use xlink:href="#D" transform="matrix(1,0,0,1,1296.666666666667,1649) translate(26.7283950617284 44.44444444444444)"/></g><path d="M1320 1849.42h60v60h-60v-60z" stroke="#fff" stroke-opacity="0" stroke-width="2" fill="#3b48cc"/><path d="M1354.34 1888.02l1.1-1.14-2.28-2.26 2.56-1.92-.96-1.28-3.3 2.48c-.05.03-.08.05-.1.08-.32.32-.3.82 0 1.13zM1363.24 1885.3l-2.56 1.92.96 1.28 3.3-2.48c.2-.15.32-.35.33-.6.02-.24-.07-.45-.24-.62l-2.97-2.88-1.1 1.15z" stroke="#fff" stroke-opacity="0" stroke-width="2" fill="#fff"/><path d="M1355.33 1889.9l4.23-9.6 1.46.64-4.23 9.6-1.47-.65z" stroke="#fff" stroke-opacity="0" stroke-width=".81" fill="#fff"/><path d="M1370.7 1866.02l-2.22-1.88-3.57-2.92-.9-.8c-.18-.16-.35-.2-.5-.2h-29.7c0-.44-.34-.8-.8-.8h-3.2c-.4 0-.8.36-.8.8v8c0 .44.4.8.8.8h3.2v29.6c0 .44.38.8.8.8h8.8c.43 0 .8-.36.8-.8v-31.2h14.42v5.88l-9 3.72h-.62c-.46 0-.8.36-.8.8v14.4c0 .44.34.8.8.8h20.8c.45 0 .78-.36.78-.8v-14.4c0-.44-.33-.8-.8-.8h-.62l-8.95-3.72v-5.88h10.8c.34 0 .63-.2.76-.52s0-.68-.25-.88zm-7.5-4.16l-4.12 3.72-4.96-3.76h9.07zm-20.6 4h-6.37l3.95-3 3.9 2.96zm-7.6 16.36l6.82-6.04v12.08zm6.4 7.8l-6.76 6.04v-12.08zm-6.76-9.6v-12.04l6.76 6.04zm6.84-18.6h10l-5 3.76zm11.34 1l3.95 3h-7.94zm-14.03-1l-5 3.8v-3.8zm-6.6 5.6h-1.6v-6.4h1.6v6.4zm2.8 30.4l6.82-6v6zm6.82-25.2l-5.92-5.2h5.92zm26.37 18.76H1349v-12.8h19.2zm-15.2-14.4l5.6-2.32 5.6 2.32zm8.18-11.2l3.23-2.92 3.62 2.96z" stroke="#fff" stroke-opacity="0" stroke-width="2" fill="#fff"/><g><use xlink:href="#C" transform="matrix(1,0,0,1,1290,1918.4173228346453) translate(10.092592592592588 17.77777777777778)"/><use xlink:href="#D" transform="matrix(1,0,0,1,1290,1918.4173228346453) translate(26.7283950617284 44.44444444444444)"/></g><path d="M1320 2060h60v60h-60v-60z" stroke="#fff" stroke-opacity="0" stroke-width="2" fill="#3b48cc"/><path d="M1354.34 2098.6l1.1-1.14-2.28-2.26 2.56-1.9-.96-1.3-3.3 2.48c-.05.03-.08.05-.1.1-.32.3-.3.8 0 1.12zM1363.24 2095.88l-2.56 1.92.96 1.28 3.3-2.48c.2-.14.32-.35.33-.6.02-.23-.07-.44-.24-.62l-2.97-2.88-1.1 1.15z" stroke="#fff" stroke-opacity="0" stroke-width="2" fill="#fff"/><path d="M1355.33 2100.48l4.23-9.6 1.46.64-4.23 9.6-1.47-.64z" stroke="#fff" stroke-opacity="0" stroke-width=".81" fill="#fff"/><path d="M1370.7 2076.6l-2.22-1.88-3.57-2.92-.9-.8c-.18-.16-.35-.2-.5-.2h-29.7c0-.44-.34-.8-.8-.8h-3.2c-.4 0-.8.36-.8.8v8c0 .44.4.8.8.8h3.2v29.6c0 .44.38.8.8.8h8.8c.43 0 .8-.36.8-.8V2078h14.42v5.88l-9 3.72h-.62c-.46 0-.8.36-.8.8v14.4c0 .44.34.8.8.8h20.8c.45 0 .78-.36.78-.8v-14.4c0-.44-.33-.8-.8-.8h-.62l-8.95-3.72V2078h10.8c.34 0 .63-.2.76-.52s0-.68-.25-.88zm-7.5-4.16l-4.12 3.72-4.96-3.76h9.07zm-20.6 4h-6.37l3.95-3 3.9 2.96zm-7.6 16.36l6.82-6.04v12.08zm6.4 7.8l-6.76 6.04v-12.08zm-6.76-9.6v-12.04l6.76 6.04zm6.84-18.6h10l-5 3.76zm11.34 1l3.95 3h-7.94zm-14.03-1l-5 3.8v-3.8zm-6.6 5.6h-1.6v-6.4h1.6v6.4zm2.8 30.4l6.82-6v6zm6.82-25.2l-5.92-5.2h5.92zm26.37 18.76H1349v-12.8h19.2zm-15.2-14.4l5.6-2.32 5.6 2.32zm8.18-11.2l3.23-2.92 3.62 2.96z" stroke="#fff" stroke-opacity="0" stroke-width="2" fill="#fff"/><g><use xlink:href="#C" transform="matrix(1,0,0,1,1290,2129) translate(10.092592592592588 17.77777777777778)"/><use xlink:href="#D" transform="matrix(1,0,0,1,1290,2129) translate(26.7283950617284 44.44444444444444)"/></g><path d="M1889.17 1901.42h9.47m9.47 0h18.96m9.47 0h18.94m9.47 0h18.95m9.46 0h18.95m9.48 0h18.94m9.47 0h18.94m9.47 0h9.48l3.03.82 2.16 2.15.82 3.02v9m0 9v18m0 9v18m0 9v18m0 9v9l.82 3.03 2.16 2.15 3.02.82h10.08m10.08 0h20.16m10.08 0h20.15m10.08 0h20.17m10.08 0h20.16m10.08 0h20.16m10.08 0h10.08" stroke="#5e5e5e" stroke-width="2" fill="none"/><path d="M1889.2 1902.42h-1.03v-2h1.02z" fill="#5e5e5e"/><path d="M2296.76 2021.42l-14.26 4.63v-9.27z" stroke="#5e5e5e" stroke-width="2" fill="#5e5e5e"/><path d="M1889.17 2121.42h9.47m9.47 0h18.96m9.47 0h18.94m9.47 0h18.95m9.46 0h18.95m9.48 0h18.94m9.47 0h18.94m9.47 0h9.48l3.03-.82 2.16-2.15.82-3.03v-9.78m0-9.78v-19.55m0-9.77v-19.56m0-9.77v-9.78l.82-3.03 2.16-2.16 3.02-.82h10.08m10.08 0h20.16m10.08 0h20.15m10.08 0h20.17m10.08 0h20.16m10.08 0h20.16m10.08 0h10.08" stroke="#5e5e5e" stroke-width="2" fill="none"/><path d="M1889.2 2122.42h-1.03v-2h1.02z" fill="#5e5e5e"/><path d="M2296.76 2021.42l-14.26 4.63v-9.27z" stroke="#5e5e5e" stroke-width="2" fill="#5e5e5e"/><path d="M2060 1346c0-3.3 2.7-6 6-6h568c3.3 0 6 2.7 6 6v968c0 3.3-2.7 6-6 6h-568c-3.3 0-6-2.7-6-6z" fill="#5a6c86" fill-opacity=".13"/><g><use xlink:href="#P" transform="matrix(1,0,0,1,2060,1360) translate(154.625 14.4)"/><use xlink:href="#Q" transform="matrix(1,0,0,1,2060,1360) translate(251.575 14.4)"/><use xlink:href="#R" transform="matrix(1,0,0,1,2060,1360) translate(346.475 14.4)"/></g><path d="M2300 1961.42h120v120h-120v-120z" stroke="#fff" stroke-opacity="0" stroke-width="2" fill="#d86613"/><path d="M2360 2064.63c-.3 0-.5-.08-.8-.17l-36.8-21.26c-.5-.35-.8-.78-.8-1.4v-42.52c0-.6.3-1.12.8-1.38l33.63-19.45c.5-.35 1.03-.35 1.54 0 .52.26.8.78.8 1.38v18.4c0 .62-.28 1.05-.8 1.4l-16.77 9.77v22.2l19.2 11.08 16.77-9.6c.52-.26 1.1-.26 1.55 0l16.03 9.25c.74.43 1.03 1.38.6 2.16-.15.25-.3.42-.6.6l-33.54 19.36c-.28.1-.5.17-.8.17zm-35.16-23.77l35.16 20.32 30.38-17.55-12.8-7.44-16.77 9.76c-.5.26-1.1.26-1.6 0l-20.83-12c-.5-.36-.8-.8-.8-1.4v-24.03c0-.6.3-1.12.8-1.38l16.85-9.77v-14.78l-30.38 17.55z" stroke="#fff" stroke-opacity="0" stroke-width="2" fill="#fff"/><path d="M2396.82 2039.7c-.3 0-.55-.06-.8-.18l-16.02-9.2c-.52-.3-.77-.86-.74-1.4v-19.5l-16.85-9.58c-.5-.3-.8-.8-.8-1.4v-18.47c0-.6.3-1.1.8-1.4.52-.25 1.08-.25 1.6 0l33.6 19.3c.5.32.8.8.8 1.42v38.8c0 .87-.7 1.6-1.58 1.6zm-14.43-11.7l12.8 7.35v-35.14l-30.4-17.47v14.78l16.78 9.64c.52.25.8.74.8 1.35z" stroke="#fff" stroke-opacity="0" stroke-width="2" fill="#fff"/><path d="M2352 2032.6v-24h3.2v10.92l10.4-10.92h4.23l-10.85 11.7 11.8 12.3h-4.38l-11.2-11.2v11.2z" stroke="#fff" stroke-opacity="0" stroke-width="2" fill="#fff"/><g><use xlink:href="#E" transform="matrix(1,0,0,1,2270,2090.4173228346453) translate(13.549382716049394 17.77777777777778)"/><use xlink:href="#F" transform="matrix(1,0,0,1,2270,2090.4173228346453) translate(101.14197530864199 17.77777777777778)"/><use xlink:href="#G" transform="matrix(1,0,0,1,2270,2090.4173228346453) translate(1.882716049382708 44.44444444444444)"/><use xlink:href="#H" transform="matrix(1,0,0,1,2270,2090.4173228346453) translate(104.16666666666667 44.44444444444444)"/><use xlink:href="#I" transform="matrix(1,0,0,1,2270,2090.4173228346453) translate(17.22222222222223 71.11111111111111)"/><use xlink:href="#J" transform="matrix(1,0,0,1,2270,2090.4173228346453) translate(49.25925925925927 71.11111111111111)"/></g><path d="M2120 1822c0-16.57 13.43-30 30-30h420c16.57 0 30 13.43 30 30v448c0 16.57-13.43 30-30 30h-420c-16.57 0-30-13.43-30-30z" stroke="#474747" fill-opacity="0"/><path d="M2181.97 1780.24v-5.9c0-7.25-5.88-13.13-13.12-13.13-7.24 0-13.12 5.9-13.12 13.14v5.9h6.64v-5.9c0-3.58 2.9-6.5 6.48-6.5 3.57 0 6.48 2.92 6.48 6.5v5.9h6.64z" fill="#876a22"/><path d="M2181.98 1780.26h5.42v20.83H2150v-20.84h5.72v-7.1c0-7.28 5.87-13.16 13.13-13.16 7.26 0 13.13 5.88 13.13 13.15v7.1zm-6.66 0v-7.1c0-3.6-2.88-6.5-6.47-6.5-3.6 0-6.47 2.9-6.47 6.5v7.1h12.94z" fill="#daa835"/><path d="M2150 1801.1h37.4v.9H2150z" fill="#876a22"/><g><use xlink:href="#K" transform="matrix(1,0,0,1,2120,2270) translate(180.7716049382716 11.11111111111111)"/><use xlink:href="#L" transform="matrix(1,0,0,1,2120,2270) translate(232.56172839506172 11.11111111111111)"/></g><path d="M100.08 596.6c0 .48-.48.96-1.2.96-.84 0-1.32-.36-1.32-.96 0-.48.48-.84 1.2-.84.72-.12 1.32.24 1.32.84zm-7.44-1.08c-.24.48.24 1.08.96 1.2.72.24 1.44 0 1.56-.48.12-.48-.36-1.08-1.08-1.32-.6-.12-1.32.12-1.44.6zm10.68-.48c-.72.24-1.2.72-1.08 1.32 0 .48.6.72 1.44.6.6-.24 1.08-.6 1.08-1.2-.12-.48-.72-.72-1.44-.72zM119.28 500C85.68 500 60 526.16 60 560.6c0 27.48 16.92 51 41.04 59.28 3.12.6 4.2-1.32 4.2-3 0-1.56-.12-9.96-.12-15.24 0 0-16.92 3.72-20.52-7.32 0 0-2.76-7.32-6.72-9.12 0 0-5.52-3.96.36-3.84 0 0 6.12.48 9.36 6.36 5.28 9.6 14.16 6.84 17.64 5.28.6-3.96 2.16-6.72 3.84-8.4-13.44-1.56-27.12-3.6-27.12-27.48 0-6.72 1.8-10.2 5.76-14.52-.72-1.68-2.76-8.28.6-16.92 5.04-1.56 16.68 6.72 16.68 6.72 4.8-1.44 10.08-2.16 15.24-2.16s10.32.72 15.12 2.16c0 0 11.64-8.28 16.68-6.72 3.36 8.64 1.32 15.24.72 16.92 3.84 4.32 6.24 7.8 6.24 14.52 0 24-14.28 25.92-27.84 27.48 2.28 1.92 4.08 5.64 4.08 11.52v20.76c0 1.56 1.08 3.48 4.2 3 24.12-8.28 40.56-31.8 40.56-59.28 0-34.44-27.24-60.6-60.72-60.6zm-35.76 85.56c-.36.24-.24.84.12 1.32.48.36.96.6 1.32.24.24-.24.24-.84-.24-1.32-.36-.36-.84-.6-1.2-.24zm-2.64-2.04c-.12.36.12.72.6.96.36.36.84.24 1.08-.12.12-.36-.12-.72-.6-.96-.48-.12-.84-.12-1.08.12zm7.92 8.88c-.48.36-.24 1.08.24 1.56.6.6 1.32.6 1.56.24.36-.36.24-1.08-.24-1.56-.6-.6-1.32-.6-1.56-.24zm-2.76-3.6c-.48.24-.48.84 0 1.44.36.6.96.84 1.32.6.36-.36.36-.96 0-1.56-.36-.6-.96-.84-1.32-.48z" stroke="#000" stroke-opacity="0" stroke-width=".29"/><defs><path fill="#333" d="M212-179c-10-28-35-45-73-45-59 0-87 40-87 99 0 60 29 101 89 101 43 0 62-24 78-52l27 14C228-24 195 4 139 4 59 4 22-46 18-125c-6-104 99-153 187-111 19 9 31 26 39 46" id="S"/><path fill="#333" d="M24 0v-261h32V0H24" id="T"/><path fill="#333" d="M84 4C-5 8 30-112 23-190h32v120c0 31 7 50 39 49 72-2 45-101 50-169h31l1 190h-30c-1-10 1-25-2-33-11 22-28 36-60 37" id="U"/><path fill="#333" d="M135-143c-3-34-86-38-87 0 15 53 115 12 119 90S17 21 10-45l28-5c4 36 97 45 98 0-10-56-113-15-118-90-4-57 82-63 122-42 12 7 21 19 24 35" id="V"/><path fill="#333" d="M59-47c-2 24 18 29 38 22v24C64 9 27 4 27-40v-127H5v-23h24l9-43h21v43h35v23H59v120" id="W"/><path fill="#333" d="M100-194c63 0 86 42 84 106H49c0 40 14 67 53 68 26 1 43-12 49-29l28 8c-11 28-37 45-77 45C44 4 14-33 15-96c1-61 26-98 85-98zm52 81c6-60-76-77-97-28-3 7-6 17-6 28h103" id="X"/><path fill="#333" d="M114-163C36-179 61-72 57 0H25l-1-190h30c1 12-1 29 2 39 6-27 23-49 58-41v29" id="Y"/><g id="a"><use transform="matrix(0.06172839506172839,0,0,0.06172839506172839,0,0)" xlink:href="#S"/><use transform="matrix(0.06172839506172839,0,0,0.06172839506172839,15.987654320987653,0)" xlink:href="#T"/><use transform="matrix(0.06172839506172839,0,0,0.06172839506172839,20.864197530864196,0)" xlink:href="#U"/><use transform="matrix(0.06172839506172839,0,0,0.06172839506172839,33.20987654320987,0)" xlink:href="#V"/><use transform="matrix(0.06172839506172839,0,0,0.06172839506172839,44.32098765432099,0)" xlink:href="#W"/><use transform="matrix(0.06172839506172839,0,0,0.06172839506172839,50.49382716049383,0)" xlink:href="#X"/><use transform="matrix(0.06172839506172839,0,0,0.06172839506172839,62.839506172839506,0)" xlink:href="#Y"/></g><path fill="#333" d="M158-156l-14 65h45v19h-49L124 0h-19l15-72H56L41 0H22l15-72H2v-19h39l14-65H11v-19h48l15-71h20l-16 71h64l16-71h19l-16 71h37v19h-40zm-83 0L61-91h63l14-65H75" id="Z"/><path fill="#333" d="M190 0L58-211 59 0H30v-248h39L202-35l-2-213h31V0h-41" id="aa"/><g id="b"><use transform="matrix(0.06172839506172839,0,0,0.06172839506172839,0,0)" xlink:href="#Z"/><use transform="matrix(0.06172839506172839,0,0,0.06172839506172839,12.345679012345679,0)" xlink:href="#aa"/></g><path fill="#333" d="M127-220V0H93v-220H8v-28h204v28h-85" id="ab"/><path fill="#333" d="M141-36C126-15 110 5 73 4 37 3 15-17 15-53c-1-64 63-63 125-63 3-35-9-54-41-54-24 1-41 7-42 31l-33-3c5-37 33-52 76-52 45 0 72 20 72 64v82c-1 20 7 32 28 27v20c-31 9-61-2-59-35zM48-53c0 20 12 33 32 33 41-3 63-29 60-74-43 2-92-5-92 41" id="ac"/><path fill="#333" d="M101-234c-31-9-42 10-38 44h38v23H63V0H32v-167H5v-23h27c-7-52 17-82 69-68v24" id="ad"/><path fill="#333" d="M100-194c62-1 85 37 85 99 1 63-27 99-86 99S16-35 15-95c0-66 28-99 85-99zM99-20c44 1 53-31 53-75 0-43-8-75-51-75s-53 32-53 75 10 74 51 75" id="ae"/><path fill="#333" d="M210-169c-67 3-38 105-44 169h-31v-121c0-29-5-50-35-48C34-165 62-65 56 0H25l-1-190h30c1 10-1 24 2 32 10-44 99-50 107 0 11-21 27-35 58-36 85-2 47 119 55 194h-31v-121c0-29-5-49-35-48" id="af"/><g id="c"><use transform="matrix(0.06172839506172839,0,0,0.06172839506172839,0,0)" xlink:href="#ab"/><use transform="matrix(0.06172839506172839,0,0,0.06172839506172839,11.049382716049381,0)" xlink:href="#X"/><use transform="matrix(0.06172839506172839,0,0,0.06172839506172839,23.39506172839506,0)" xlink:href="#Y"/><use transform="matrix(0.06172839506172839,0,0,0.06172839506172839,30.74074074074074,0)" xlink:href="#Y"/><use transform="matrix(0.06172839506172839,0,0,0.06172839506172839,38.08641975308642,0)" xlink:href="#ac"/><use transform="matrix(0.06172839506172839,0,0,0.06172839506172839,50.432098765432094,0)" xlink:href="#ad"/><use transform="matrix(0.06172839506172839,0,0,0.06172839506172839,56.60493827160494,0)" xlink:href="#ae"/><use transform="matrix(0.06172839506172839,0,0,0.06172839506172839,68.95061728395062,0)" xlink:href="#Y"/><use transform="matrix(0.06172839506172839,0,0,0.06172839506172839,76.2962962962963,0)" xlink:href="#af"/></g><path fill="#333" d="M115-194c55 1 70 41 70 98S169 2 115 4C84 4 66-9 55-30l1 105H24l-1-265h31l2 30c10-21 28-34 59-34zm-8 174c40 0 45-34 45-75s-6-73-45-74c-42 0-51 32-51 76 0 43 10 73 51 73" id="ag"/><path fill="#333" d="M117-194c89-4 53 116 60 194h-32v-121c0-31-8-49-39-48C34-167 62-67 57 0H25l-1-190h30c1 10-1 24 2 32 11-22 29-35 61-36" id="ah"/><g id="d"><use transform="matrix(0.06172839506172839,0,0,0.06172839506172839,0,0)" xlink:href="#ag"/><use transform="matrix(0.06172839506172839,0,0,0.06172839506172839,12.345679012345679,0)" xlink:href="#T"/><use transform="matrix(0.06172839506172839,0,0,0.06172839506172839,17.22222222222222,0)" xlink:href="#ac"/><use transform="matrix(0.06172839506172839,0,0,0.06172839506172839,29.5679012345679,0)" xlink:href="#ah"/></g><path fill="#333" d="M143 0L79-87 56-68V0H24v-261h32v163l83-92h37l-77 82L181 0h-38" id="ai"/><path fill="#333" d="M115-194c53 0 69 39 70 98 0 66-23 100-70 100C84 3 66-7 56-30L54 0H23l1-261h32v101c10-23 28-34 59-34zm-8 174c40 0 45-34 45-75 0-40-5-75-45-74-42 0-51 32-51 76 0 43 10 73 51 73" id="aj"/><path fill="#333" d="M16-82v-28h88v28H16" id="ak"/><path fill="#333" d="M85-194c31 0 48 13 60 33l-1-100h32l1 261h-30c-2-10 0-23-3-31C134-8 116 4 85 4 32 4 16-35 15-94c0-66 23-100 70-100zm9 24c-40 0-46 34-46 75 0 40 6 74 45 74 42 0 51-32 51-76 0-42-9-74-50-73" id="al"/><path fill="#333" d="M24-231v-30h32v30H24zM24 0v-190h32V0H24" id="am"/><g id="e"><use transform="matrix(0.06172839506172839,0,0,0.06172839506172839,0,0)" xlink:href="#ai"/><use transform="matrix(0.06172839506172839,0,0,0.06172839506172839,11.11111111111111,0)" xlink:href="#U"/><use transform="matrix(0.06172839506172839,0,0,0.06172839506172839,23.45679012345679,0)" xlink:href="#aj"/><use transform="matrix(0.06172839506172839,0,0,0.06172839506172839,35.80246913580247,0)" xlink:href="#X"/><use transform="matrix(0.06172839506172839,0,0,0.06172839506172839,48.148148148148145,0)" xlink:href="#Y"/><use transform="matrix(0.06172839506172839,0,0,0.06172839506172839,55.49382716049382,0)" xlink:href="#ah"/><use transform="matrix(0.06172839506172839,0,0,0.06172839506172839,67.8395061728395,0)" xlink:href="#X"/><use transform="matrix(0.06172839506172839,0,0,0.06172839506172839,80.18518518518519,0)" xlink:href="#W"/><use transform="matrix(0.06172839506172839,0,0,0.06172839506172839,86.35802469135803,0)" xlink:href="#X"/><use transform="matrix(0.06172839506172839,0,0,0.06172839506172839,98.70370370370371,0)" xlink:href="#V"/><use transform="matrix(0.06172839506172839,0,0,0.06172839506172839,109.81481481481482,0)" xlink:href="#ak"/><use transform="matrix(0.06172839506172839,0,0,0.06172839506172839,117.16049382716051,0)" xlink:href="#ad"/><use transform="matrix(0.06172839506172839,0,0,0.06172839506172839,123.33333333333334,0)" xlink:href="#ae"/><use transform="matrix(0.06172839506172839,0,0,0.06172839506172839,135.679012345679,0)" xlink:href="#U"/><use transform="matrix(0.06172839506172839,0,0,0.06172839506172839,148.02469135802468,0)" xlink:href="#ah"/><use transform="matrix(0.06172839506172839,0,0,0.06172839506172839,160.37037037037035,0)" xlink:href="#al"/><use transform="matrix(0.06172839506172839,0,0,0.06172839506172839,172.71604938271602,0)" xlink:href="#ac"/><use transform="matrix(0.06172839506172839,0,0,0.06172839506172839,185.0617283950617,0)" xlink:href="#W"/><use transform="matrix(0.06172839506172839,0,0,0.06172839506172839,191.23456790123453,0)" xlink:href="#am"/><use transform="matrix(0.06172839506172839,0,0,0.06172839506172839,196.11111111111106,0)" xlink:href="#ae"/><use transform="matrix(0.06172839506172839,0,0,0.06172839506172839,208.45679012345673,0)" xlink:href="#ah"/></g><path fill="#333" d="M143 4C61 4 22-44 18-125c-5-107 100-154 193-111 17 8 29 25 37 43l-32 9c-13-25-37-40-76-40-61 0-88 39-88 99 0 61 29 100 91 101 35 0 62-11 79-27v-45h-74v-28h105v86C228-13 192 4 143 4" id="an"/><path fill="#333" d="M106-169C34-169 62-67 57 0H25v-261h32l-1 103c12-21 28-36 61-36 89 0 53 116 60 194h-32v-121c2-32-8-49-39-48" id="ao"/><g id="f"><use transform="matrix(0.06172839506172839,0,0,0.06172839506172839,0,0)" xlink:href="#an"/><use transform="matrix(0.06172839506172839,0,0,0.06172839506172839,17.28395061728395,0)" xlink:href="#am"/><use transform="matrix(0.06172839506172839,0,0,0.06172839506172839,22.160493827160494,0)" xlink:href="#W"/><use transform="matrix(0.06172839506172839,0,0,0.06172839506172839,28.333333333333332,0)" xlink:href="#ao"/><use transform="matrix(0.06172839506172839,0,0,0.06172839506172839,40.67901234567901,0)" xlink:href="#U"/><use transform="matrix(0.06172839506172839,0,0,0.06172839506172839,53.02469135802469,0)" xlink:href="#aj"/></g><path fill="#333" d="M179-190L93 31C79 59 56 82 12 73V49c39 6 53-20 64-50L1-190h34L92-34l54-156h33" id="ap"/><g id="g"><use transform="matrix(0.06172839506172839,0,0,0.06172839506172839,0,0)" xlink:href="#Y"/><use transform="matrix(0.06172839506172839,0,0,0.06172839506172839,7.345679012345679,0)" xlink:href="#X"/><use transform="matrix(0.06172839506172839,0,0,0.06172839506172839,19.691358024691358,0)" xlink:href="#ag"/><use transform="matrix(0.06172839506172839,0,0,0.06172839506172839,32.03703703703704,0)" xlink:href="#ae"/><use transform="matrix(0.06172839506172839,0,0,0.06172839506172839,44.382716049382715,0)" xlink:href="#V"/><use transform="matrix(0.06172839506172839,0,0,0.06172839506172839,55.49382716049382,0)" xlink:href="#am"/><use transform="matrix(0.06172839506172839,0,0,0.06172839506172839,60.37037037037037,0)" xlink:href="#W"/><use transform="matrix(0.06172839506172839,0,0,0.06172839506172839,66.5432098765432,0)" xlink:href="#ae"/><use transform="matrix(0.06172839506172839,0,0,0.06172839506172839,78.88888888888889,0)" xlink:href="#Y"/><use transform="matrix(0.06172839506172839,0,0,0.06172839506172839,86.23456790123457,0)" xlink:href="#ap"/></g><path fill="#333" d="M205 0l-28-72H64L36 0H1l101-248h38L239 0h-34zm-38-99l-47-123c-12 45-31 82-46 123h93" id="aq"/><g id="h"><use transform="matrix(0.06172839506172839,0,0,0.06172839506172839,0,0)" xlink:href="#aq"/><use transform="matrix(0.06172839506172839,0,0,0.06172839506172839,14.814814814814813,0)" xlink:href="#ag"/><use transform="matrix(0.06172839506172839,0,0,0.06172839506172839,27.160493827160494,0)" xlink:href="#ag"/><use transform="matrix(0.06172839506172839,0,0,0.06172839506172839,39.50617283950617,0)" xlink:href="#T"/><use transform="matrix(0.06172839506172839,0,0,0.06172839506172839,44.382716049382715,0)" xlink:href="#ap"/></g><path fill="#333" d="M177-190C167-65 218 103 67 71c-23-6-38-20-44-43l32-5c15 47 100 32 89-28v-30C133-14 115 1 83 1 29 1 15-40 15-95c0-56 16-97 71-98 29-1 48 16 59 35 1-10 0-23 2-32h30zM94-22c36 0 50-32 50-73 0-42-14-75-50-75-39 0-46 34-46 75s6 73 46 73" id="ar"/><path fill="#333" d="M30-248c118-7 216 8 213 122C240-48 200 0 122 0H30v-248zM63-27c89 8 146-16 146-99s-60-101-146-95v194" id="as"/><g id="i"><use transform="matrix(0.06172839506172839,0,0,0.06172839506172839,0,0)" xlink:href="#aq"/><use transform="matrix(0.06172839506172839,0,0,0.06172839506172839,14.814814814814813,0)" xlink:href="#Y"/><use transform="matrix(0.06172839506172839,0,0,0.06172839506172839,22.160493827160494,0)" xlink:href="#ar"/><use transform="matrix(0.06172839506172839,0,0,0.06172839506172839,34.50617283950617,0)" xlink:href="#ae"/><use transform="matrix(0.06172839506172839,0,0,0.06172839506172839,46.85185185185185,0)" xlink:href="#S"/><use transform="matrix(0.06172839506172839,0,0,0.06172839506172839,62.8395061728395,0)" xlink:href="#as"/></g><g id="j"><use transform="matrix(0.06172839506172839,0,0,0.06172839506172839,0,0)" xlink:href="#al"/><use transform="matrix(0.06172839506172839,0,0,0.06172839506172839,12.345679012345679,0)" xlink:href="#X"/><use transform="matrix(0.06172839506172839,0,0,0.06172839506172839,24.691358024691358,0)" xlink:href="#ag"/><use transform="matrix(0.06172839506172839,0,0,0.06172839506172839,37.03703703703704,0)" xlink:href="#T"/><use transform="matrix(0.06172839506172839,0,0,0.06172839506172839,41.91358024691358,0)" xlink:href="#ae"/><use transform="matrix(0.06172839506172839,0,0,0.06172839506172839,54.25925925925926,0)" xlink:href="#ap"/><use transform="matrix(0.06172839506172839,0,0,0.06172839506172839,65.37037037037037,0)" xlink:href="#af"/><use transform="matrix(0.06172839506172839,0,0,0.06172839506172839,83.82716049382715,0)" xlink:href="#X"/><use transform="matrix(0.06172839506172839,0,0,0.06172839506172839,96.17283950617283,0)" xlink:href="#ah"/><use transform="matrix(0.06172839506172839,0,0,0.06172839506172839,108.51851851851852,0)" xlink:href="#W"/></g><path fill="#333" d="M30-248c87 1 191-15 191 75 0 78-77 80-158 76V0H30v-248zm33 125c57 0 124 11 124-50 0-59-68-47-124-48v98" id="at"/><g id="k"><use transform="matrix(0.06172839506172839,0,0,0.06172839506172839,0,0)" xlink:href="#at"/><use transform="matrix(0.06172839506172839,0,0,0.06172839506172839,14.814814814814813,0)" xlink:href="#U"/><use transform="matrix(0.06172839506172839,0,0,0.06172839506172839,27.160493827160494,0)" xlink:href="#T"/><use transform="matrix(0.06172839506172839,0,0,0.06172839506172839,32.03703703703704,0)" xlink:href="#T"/></g><path fill="#333" d="M233-177c-1 41-23 64-60 70L243 0h-38l-65-103H63V0H30v-248c88 3 205-21 203 71zM63-129c60-2 137 13 137-47 0-61-80-42-137-45v92" id="au"/><path fill="#333" d="M145-31C134-9 116 4 85 4 32 4 16-35 15-94c0-59 17-99 70-100 32-1 48 14 60 33 0-11-1-24 2-32h30l-1 268h-32zM93-21c41 0 51-33 51-76s-8-73-50-73c-40 0-46 35-46 75s5 74 45 74" id="av"/><g id="l"><use transform="matrix(0.06172839506172839,0,0,0.06172839506172839,0,0)" xlink:href="#au"/><use transform="matrix(0.06172839506172839,0,0,0.06172839506172839,15.987654320987653,0)" xlink:href="#X"/><use transform="matrix(0.06172839506172839,0,0,0.06172839506172839,28.333333333333332,0)" xlink:href="#av"/><use transform="matrix(0.06172839506172839,0,0,0.06172839506172839,40.67901234567901,0)" xlink:href="#U"/><use transform="matrix(0.06172839506172839,0,0,0.06172839506172839,53.02469135802469,0)" xlink:href="#X"/><use transform="matrix(0.06172839506172839,0,0,0.06172839506172839,65.37037037037037,0)" xlink:href="#V"/><use transform="matrix(0.06172839506172839,0,0,0.06172839506172839,76.48148148148148,0)" xlink:href="#W"/></g><g id="m"><use transform="matrix(0.06172839506172839,0,0,0.06172839506172839,0,0)" xlink:href="#af"/><use transform="matrix(0.06172839506172839,0,0,0.06172839506172839,18.456790123456788,0)" xlink:href="#ac"/><use transform="matrix(0.06172839506172839,0,0,0.06172839506172839,30.80246913580247,0)" xlink:href="#V"/><use transform="matrix(0.06172839506172839,0,0,0.06172839506172839,41.91358024691358,0)" xlink:href="#W"/><use transform="matrix(0.06172839506172839,0,0,0.06172839506172839,48.086419753086425,0)" xlink:href="#X"/><use transform="matrix(0.06172839506172839,0,0,0.06172839506172839,60.4320987654321,0)" xlink:href="#Y"/></g><path fill="#333" d="M169-182c-1-43-94-46-97-3 18 66 151 10 154 114 3 95-165 93-204 36-6-8-10-19-12-30l50-8c3 46 112 56 116 5-17-69-150-10-154-114-4-87 153-88 188-35 5 8 8 18 10 28" id="aw"/><path fill="#333" d="M136-208V0H84v-208H4v-40h212v40h-80" id="ax"/><path fill="#333" d="M199 0l-22-63H83L61 0H9l90-248h61L250 0h-51zm-33-102l-36-108c-10 38-24 72-36 108h72" id="ay"/><path fill="#333" d="M240-174c0 40-23 61-54 70L253 0h-59l-57-94H76V0H24v-248c93 4 217-23 216 74zM76-134c48-2 112 12 112-38 0-48-66-32-112-35v73" id="az"/><g id="n"><use transform="matrix(0.04938271604938272,0,0,0.04938271604938272,0,0)" xlink:href="#aw"/><use transform="matrix(0.04938271604938272,0,0,0.04938271604938272,11.851851851851853,0)" xlink:href="#ax"/><use transform="matrix(0.04938271604938272,0,0,0.04938271604938272,21.333333333333336,0)" xlink:href="#ay"/><use transform="matrix(0.04938271604938272,0,0,0.04938271604938272,34.12345679012346,0)" xlink:href="#az"/><use transform="matrix(0.04938271604938272,0,0,0.04938271604938272,46.91358024691359,0)" xlink:href="#ax"/></g><path fill="#232f3e" d="M205 0l-28-72H64L36 0H1l101-248h38L239 0h-34zm-38-99l-47-123c-12 45-31 82-46 123h93" id="aA"/><path fill="#232f3e" d="M266 0h-40l-56-210L115 0H75L2-248h35L96-30l15-64 43-154h32l59 218 59-218h35" id="aB"/><path fill="#232f3e" d="M185-189c-5-48-123-54-124 2 14 75 158 14 163 119 3 78-121 87-175 55-17-10-28-26-33-46l33-7c5 56 141 63 141-1 0-78-155-14-162-118-5-82 145-84 179-34 5 7 8 16 11 25" id="aC"/><g id="o"><use transform="matrix(0.05,0,0,0.05,0,0)" xlink:href="#aA"/><use transform="matrix(0.05,0,0,0.05,11.35,0)" xlink:href="#aB"/><use transform="matrix(0.05,0,0,0.05,28.299999999999997,0)" xlink:href="#aC"/></g><path fill="#232f3e" d="M212-179c-10-28-35-45-73-45-59 0-87 40-87 99 0 60 29 101 89 101 43 0 62-24 78-52l27 14C228-24 195 4 139 4 59 4 22-46 18-125c-6-104 99-153 187-111 19 9 31 26 39 46" id="aD"/><path fill="#232f3e" d="M24 0v-261h32V0H24" id="aE"/><path fill="#232f3e" d="M100-194c62-1 85 37 85 99 1 63-27 99-86 99S16-35 15-95c0-66 28-99 85-99zM99-20c44 1 53-31 53-75 0-43-8-75-51-75s-53 32-53 75 10 74 51 75" id="aF"/><path fill="#232f3e" d="M84 4C-5 8 30-112 23-190h32v120c0 31 7 50 39 49 72-2 45-101 50-169h31l1 190h-30c-1-10 1-25-2-33-11 22-28 36-60 37" id="aG"/><path fill="#232f3e" d="M85-194c31 0 48 13 60 33l-1-100h32l1 261h-30c-2-10 0-23-3-31C134-8 116 4 85 4 32 4 16-35 15-94c0-66 23-100 70-100zm9 24c-40 0-46 34-46 75 0 40 6 74 45 74 42 0 51-32 51-76 0-42-9-74-50-73" id="aH"/><g id="p"><use transform="matrix(0.05,0,0,0.05,0,0)" xlink:href="#aD"/><use transform="matrix(0.05,0,0,0.05,12.950000000000001,0)" xlink:href="#aE"/><use transform="matrix(0.05,0,0,0.05,16.900000000000002,0)" xlink:href="#aF"/><use transform="matrix(0.05,0,0,0.05,26.900000000000002,0)" xlink:href="#aG"/><use transform="matrix(0.05,0,0,0.05,36.900000000000006,0)" xlink:href="#aH"/></g><path fill="#333" d="M266 0h-40l-56-210L115 0H75L2-248h35L96-30l15-64 43-154h32l59 218 59-218h35" id="aI"/><path fill="#333" d="M185-189c-5-48-123-54-124 2 14 75 158 14 163 119 3 78-121 87-175 55-17-10-28-26-33-46l33-7c5 56 141 63 141-1 0-78-155-14-162-118-5-82 145-84 179-34 5 7 8 16 11 25" id="aJ"/><g id="q"><use transform="matrix(0.06172839506172839,0,0,0.06172839506172839,0,0)" xlink:href="#aq"/><use transform="matrix(0.06172839506172839,0,0,0.06172839506172839,14.012345679012345,0)" xlink:href="#aI"/><use transform="matrix(0.06172839506172839,0,0,0.06172839506172839,34.938271604938265,0)" xlink:href="#aJ"/></g><path fill="#333" d="M160-131c35 5 61 23 61 61C221 17 115-2 30 0v-248c76 3 177-17 177 60 0 33-19 50-47 57zm-97-11c50-1 110 9 110-42 0-47-63-36-110-37v79zm0 115c55-2 124 14 124-45 0-56-70-42-124-44v89" id="aK"/><g id="r"><use transform="matrix(0.06172839506172839,0,0,0.06172839506172839,0,0)" xlink:href="#S"/><use transform="matrix(0.06172839506172839,0,0,0.06172839506172839,15.987654320987653,0)" xlink:href="#ae"/><use transform="matrix(0.06172839506172839,0,0,0.06172839506172839,28.333333333333332,0)" xlink:href="#al"/><use transform="matrix(0.06172839506172839,0,0,0.06172839506172839,40.67901234567901,0)" xlink:href="#X"/><use transform="matrix(0.06172839506172839,0,0,0.06172839506172839,53.02469135802469,0)" xlink:href="#aK"/><use transform="matrix(0.06172839506172839,0,0,0.06172839506172839,67.8395061728395,0)" xlink:href="#U"/><use transform="matrix(0.06172839506172839,0,0,0.06172839506172839,80.18518518518519,0)" xlink:href="#am"/><use transform="matrix(0.06172839506172839,0,0,0.06172839506172839,85.06172839506173,0)" xlink:href="#T"/><use transform="matrix(0.06172839506172839,0,0,0.06172839506172839,89.93827160493828,0)" xlink:href="#al"/></g><path fill="#5a6c86" d="M127-220V0H93v-220H8v-28h204v28h-85" id="aL"/><path fill="#5a6c86" d="M100-194c63 0 86 42 84 106H49c0 40 14 67 53 68 26 1 43-12 49-29l28 8c-11 28-37 45-77 45C44 4 14-33 15-96c1-61 26-98 85-98zm52 81c6-60-76-77-97-28-3 7-6 17-6 28h103" id="aM"/><path fill="#5a6c86" d="M114-163C36-179 61-72 57 0H25l-1-190h30c1 12-1 29 2 39 6-27 23-49 58-41v29" id="aN"/><path fill="#5a6c86" d="M141-36C126-15 110 5 73 4 37 3 15-17 15-53c-1-64 63-63 125-63 3-35-9-54-41-54-24 1-41 7-42 31l-33-3c5-37 33-52 76-52 45 0 72 20 72 64v82c-1 20 7 32 28 27v20c-31 9-61-2-59-35zM48-53c0 20 12 33 32 33 41-3 63-29 60-74-43 2-92-5-92 41" id="aO"/><path fill="#5a6c86" d="M101-234c-31-9-42 10-38 44h38v23H63V0H32v-167H5v-23h27c-7-52 17-82 69-68v24" id="aP"/><path fill="#5a6c86" d="M100-194c62-1 85 37 85 99 1 63-27 99-86 99S16-35 15-95c0-66 28-99 85-99zM99-20c44 1 53-31 53-75 0-43-8-75-51-75s-53 32-53 75 10 74 51 75" id="aQ"/><path fill="#5a6c86" d="M210-169c-67 3-38 105-44 169h-31v-121c0-29-5-50-35-48C34-165 62-65 56 0H25l-1-190h30c1 10-1 24 2 32 10-44 99-50 107 0 11-21 27-35 58-36 85-2 47 119 55 194h-31v-121c0-29-5-49-35-48" id="aR"/><g id="s"><use transform="matrix(0.05,0,0,0.05,0,0)" xlink:href="#aL"/><use transform="matrix(0.05,0,0,0.05,8.950000000000001,0)" xlink:href="#aM"/><use transform="matrix(0.05,0,0,0.05,18.950000000000003,0)" xlink:href="#aN"/><use transform="matrix(0.05,0,0,0.05,24.900000000000002,0)" xlink:href="#aN"/><use transform="matrix(0.05,0,0,0.05,30.85,0)" xlink:href="#aO"/><use transform="matrix(0.05,0,0,0.05,40.85,0)" xlink:href="#aP"/><use transform="matrix(0.05,0,0,0.05,45.85,0)" xlink:href="#aQ"/><use transform="matrix(0.05,0,0,0.05,55.85,0)" xlink:href="#aN"/><use transform="matrix(0.05,0,0,0.05,61.800000000000004,0)" xlink:href="#aR"/></g><path fill="#5a6c86" d="M96-169c-40 0-48 33-48 73s9 75 48 75c24 0 41-14 43-38l32 2c-6 37-31 61-74 61-59 0-76-41-82-99-10-93 101-131 147-64 4 7 5 14 7 22l-32 3c-4-21-16-35-41-35" id="aS"/><path fill="#5a6c86" d="M59-47c-2 24 18 29 38 22v24C64 9 27 4 27-40v-127H5v-23h24l9-43h21v43h35v23H59v120" id="aT"/><path fill="#5a6c86" d="M85-194c31 0 48 13 60 33l-1-100h32l1 261h-30c-2-10 0-23-3-31C134-8 116 4 85 4 32 4 16-35 15-94c0-66 23-100 70-100zm9 24c-40 0-46 34-46 75 0 40 6 74 45 74 42 0 51-32 51-76 0-42-9-74-50-73" id="aU"/><g id="t"><use transform="matrix(0.05,0,0,0.05,0,0)" xlink:href="#aS"/><use transform="matrix(0.05,0,0,0.05,9,0)" xlink:href="#aN"/><use transform="matrix(0.05,0,0,0.05,14.949999999999998,0)" xlink:href="#aM"/><use transform="matrix(0.05,0,0,0.05,24.95,0)" xlink:href="#aO"/><use transform="matrix(0.05,0,0,0.05,34.95,0)" xlink:href="#aT"/><use transform="matrix(0.05,0,0,0.05,39.95,0)" xlink:href="#aM"/><use transform="matrix(0.05,0,0,0.05,49.95,0)" xlink:href="#aU"/></g><path fill="#5a6c86" d="M135-143c-3-34-86-38-87 0 15 53 115 12 119 90S17 21 10-45l28-5c4 36 97 45 98 0-10-56-113-15-118-90-4-57 82-63 122-42 12 7 21 19 24 35" id="aV"/><path fill="#5a6c86" d="M84 4C-5 8 30-112 23-190h32v120c0 31 7 50 39 49 72-2 45-101 50-169h31l1 190h-30c-1-10 1-25-2-33-11 22-28 36-60 37" id="aW"/><g id="u"><use transform="matrix(0.05,0,0,0.05,0,0)" xlink:href="#aN"/><use transform="matrix(0.05,0,0,0.05,5.95,0)" xlink:href="#aM"/><use transform="matrix(0.05,0,0,0.05,15.949999999999998,0)" xlink:href="#aV"/><use transform="matrix(0.05,0,0,0.05,24.95,0)" xlink:href="#aQ"/><use transform="matrix(0.05,0,0,0.05,34.95,0)" xlink:href="#aW"/><use transform="matrix(0.05,0,0,0.05,44.95,0)" xlink:href="#aN"/><use transform="matrix(0.05,0,0,0.05,50.900000000000006,0)" xlink:href="#aS"/><use transform="matrix(0.05,0,0,0.05,59.900000000000006,0)" xlink:href="#aM"/><use transform="matrix(0.05,0,0,0.05,69.9,0)" xlink:href="#aV"/></g><path fill="#333" d="M182-130c37 4 62 22 62 59C244 23 116-4 24 0v-248c84 5 203-23 205 63 0 31-19 50-47 55zM76-148c40-3 101 13 101-30 0-44-60-28-101-31v61zm0 110c48-3 116 14 116-37 0-48-69-32-116-35v72" id="aX"/><path fill="#333" d="M85 4C-2 5 27-109 22-190h50c7 57-23 150 33 157 60-5 35-97 40-157h50l1 190h-47c-2-12 1-28-3-38-12 25-28 42-61 42" id="aY"/><path fill="#333" d="M25-224v-37h50v37H25zM25 0v-190h50V0H25" id="aZ"/><path fill="#333" d="M25 0v-261h50V0H25" id="ba"/><path fill="#333" d="M88-194c31-1 46 15 58 34l-1-101h50l1 261h-48c-2-10 0-23-3-31C134-8 116 4 84 4 32 4 16-41 15-95c0-56 19-97 73-99zm17 164c33 0 40-30 41-66 1-37-9-64-41-64s-38 30-39 65c0 43 13 65 39 65" id="bb"/><g id="w"><use transform="matrix(0.04938271604938272,0,0,0.04938271604938272,0,0)" xlink:href="#aX"/><use transform="matrix(0.04938271604938272,0,0,0.04938271604938272,12.790123456790125,0)" xlink:href="#aY"/><use transform="matrix(0.04938271604938272,0,0,0.04938271604938272,23.60493827160494,0)" xlink:href="#aZ"/><use transform="matrix(0.04938271604938272,0,0,0.04938271604938272,28.543209876543212,0)" xlink:href="#ba"/><use transform="matrix(0.04938271604938272,0,0,0.04938271604938272,33.48148148148148,0)" xlink:href="#bb"/></g><path fill="#333" d="M135-150c-39-12-60 13-60 57V0H25l-1-190h47c2 13-1 29 3 40 6-28 27-53 61-41v41" id="bc"/><path fill="#333" d="M185-48c-13 30-37 53-82 52C43 2 14-33 14-96s30-98 90-98c62 0 83 45 84 108H66c0 31 8 55 39 56 18 0 30-7 34-22zm-45-69c5-46-57-63-70-21-2 6-4 13-4 21h74" id="bd"/><path fill="#333" d="M137-138c1-29-70-34-71-4 15 46 118 7 119 86 1 83-164 76-172 9l43-7c4 19 20 25 44 25 33 8 57-30 24-41C81-84 22-81 20-136c-2-80 154-74 161-7" id="be"/><path fill="#333" d="M115-3C79 11 28 4 28-45v-112H4v-33h27l15-45h31v45h36v33H77v99c-1 23 16 31 38 25v30" id="bf"/><g id="x"><use transform="matrix(0.04938271604938272,0,0,0.04938271604938272,0,0)" xlink:href="#bc"/><use transform="matrix(0.04938271604938272,0,0,0.04938271604938272,6.913580246913581,0)" xlink:href="#bd"/><use transform="matrix(0.04938271604938272,0,0,0.04938271604938272,16.790123456790127,0)" xlink:href="#be"/><use transform="matrix(0.04938271604938272,0,0,0.04938271604938272,26.666666666666668,0)" xlink:href="#aY"/><use transform="matrix(0.04938271604938272,0,0,0.04938271604938272,37.48148148148149,0)" xlink:href="#ba"/><use transform="matrix(0.04938271604938272,0,0,0.04938271604938272,42.41975308641976,0)" xlink:href="#bf"/></g><path fill="#333" d="M133-34C117-15 103 5 69 4 32 3 11-16 11-54c-1-60 55-63 116-61 1-26-3-47-28-47-18 1-26 9-28 27l-52-2c7-38 36-58 82-57s74 22 75 68l1 82c-1 14 12 18 25 15v27c-30 8-71 5-69-32zm-48 3c29 0 43-24 42-57-32 0-66-3-65 30 0 17 8 27 23 27" id="bg"/><g id="y"><use transform="matrix(0.04938271604938272,0,0,0.04938271604938272,0,0)" xlink:href="#bg"/><use transform="matrix(0.04938271604938272,0,0,0.04938271604938272,9.876543209876544,0)" xlink:href="#be"/></g><path fill="#333" d="M135-194c87-1 58 113 63 194h-50c-7-57 23-157-34-157-59 0-34 97-39 157H25l-1-190h47c2 12-1 28 3 38 12-26 28-41 61-42" id="bh"/><g id="z"><use transform="matrix(0.04938271604938272,0,0,0.04938271604938272,0,0)" xlink:href="#bg"/><use transform="matrix(0.04938271604938272,0,0,0.04938271604938272,9.876543209876544,0)" xlink:href="#bh"/></g><path fill="#333" d="M24-248c93 1 206-16 204 79-1 75-69 88-152 82V0H24v-248zm52 121c47 0 100 7 100-41 0-47-54-39-100-39v80" id="bi"/><g id="A"><use transform="matrix(0.04938271604938272,0,0,0.04938271604938272,0,0)" xlink:href="#bi"/><use transform="matrix(0.04938271604938272,0,0,0.04938271604938272,11.851851851851853,0)" xlink:href="#az"/></g><path fill="#333" d="M190-63c-7 42-38 67-86 67-59 0-84-38-90-98-12-110 154-137 174-36l-49 2c-2-19-15-32-35-32-30 0-35 28-38 64-6 74 65 87 74 30" id="bj"/><path fill="#333" d="M110-194c64 0 96 36 96 99 0 64-35 99-97 99-61 0-95-36-95-99 0-62 34-99 96-99zm-1 164c35 0 45-28 45-65 0-40-10-65-43-65-34 0-45 26-45 65 0 36 10 65 43 65" id="bk"/><path fill="#333" d="M220-157c-53 9-28 100-34 157h-49v-107c1-27-5-49-29-50C55-147 81-57 75 0H25l-1-190h47c2 12-1 28 3 38 10-53 101-56 108 0 13-22 24-43 59-42 82 1 51 116 57 194h-49v-107c-1-25-5-48-29-50" id="bl"/><g id="B"><use transform="matrix(0.04938271604938272,0,0,0.04938271604938272,0,0)" xlink:href="#bj"/><use transform="matrix(0.04938271604938272,0,0,0.04938271604938272,9.876543209876544,0)" xlink:href="#bk"/><use transform="matrix(0.04938271604938272,0,0,0.04938271604938272,20.69135802469136,0)" xlink:href="#bl"/><use transform="matrix(0.04938271604938272,0,0,0.04938271604938272,36.49382716049383,0)" xlink:href="#bl"/><use transform="matrix(0.04938271604938272,0,0,0.04938271604938272,52.2962962962963,0)" xlink:href="#bd"/><use transform="matrix(0.04938271604938272,0,0,0.04938271604938272,62.17283950617284,0)" xlink:href="#bh"/><use transform="matrix(0.04938271604938272,0,0,0.04938271604938272,72.98765432098766,0)" xlink:href="#bf"/></g><g id="C"><use transform="matrix(0.06172839506172839,0,0,0.06172839506172839,0,0)" xlink:href="#S"/><use transform="matrix(0.06172839506172839,0,0,0.06172839506172839,15.987654320987653,0)" xlink:href="#ae"/><use transform="matrix(0.06172839506172839,0,0,0.06172839506172839,28.333333333333332,0)" xlink:href="#al"/><use transform="matrix(0.06172839506172839,0,0,0.06172839506172839,40.67901234567901,0)" xlink:href="#X"/><use transform="matrix(0.06172839506172839,0,0,0.06172839506172839,53.02469135802469,0)" xlink:href="#aj"/><use transform="matrix(0.06172839506172839,0,0,0.06172839506172839,65.37037037037037,0)" xlink:href="#U"/><use transform="matrix(0.06172839506172839,0,0,0.06172839506172839,77.71604938271605,0)" xlink:href="#am"/><use transform="matrix(0.06172839506172839,0,0,0.06172839506172839,82.5925925925926,0)" xlink:href="#T"/><use transform="matrix(0.06172839506172839,0,0,0.06172839506172839,87.46913580246914,0)" xlink:href="#al"/></g><path fill="#333" d="M24-231v-30h32v30H24zM-9 49c24 4 33-6 33-30v-209h32V24c2 40-23 58-65 49V49" id="bm"/><path fill="#333" d="M96-169c-40 0-48 33-48 73s9 75 48 75c24 0 41-14 43-38l32 2c-6 37-31 61-74 61-59 0-76-41-82-99-10-93 101-131 147-64 4 7 5 14 7 22l-32 3c-4-21-16-35-41-35" id="bn"/><g id="D"><use transform="matrix(0.06172839506172839,0,0,0.06172839506172839,0,0)" xlink:href="#ag"/><use transform="matrix(0.06172839506172839,0,0,0.06172839506172839,12.345679012345679,0)" xlink:href="#Y"/><use transform="matrix(0.06172839506172839,0,0,0.06172839506172839,19.691358024691358,0)" xlink:href="#ae"/><use transform="matrix(0.06172839506172839,0,0,0.06172839506172839,32.03703703703704,0)" xlink:href="#bm"/><use transform="matrix(0.06172839506172839,0,0,0.06172839506172839,36.91358024691358,0)" xlink:href="#X"/><use transform="matrix(0.06172839506172839,0,0,0.06172839506172839,49.25925925925926,0)" xlink:href="#bn"/><use transform="matrix(0.06172839506172839,0,0,0.06172839506172839,60.37037037037037,0)" xlink:href="#W"/></g><path fill="#333" d="M9 0v-24l116-142H16v-24h144v24L44-24h123V0H9" id="bo"/><g id="E"><use transform="matrix(0.06172839506172839,0,0,0.06172839506172839,0,0)" xlink:href="#aq"/><use transform="matrix(0.06172839506172839,0,0,0.06172839506172839,14.814814814814813,0)" xlink:href="#af"/><use transform="matrix(0.06172839506172839,0,0,0.06172839506172839,33.2716049382716,0)" xlink:href="#ac"/><use transform="matrix(0.06172839506172839,0,0,0.06172839506172839,45.61728395061728,0)" xlink:href="#bo"/><use transform="matrix(0.06172839506172839,0,0,0.06172839506172839,56.72839506172839,0)" xlink:href="#ae"/><use transform="matrix(0.06172839506172839,0,0,0.06172839506172839,69.07407407407408,0)" xlink:href="#ah"/></g><path fill="#333" d="M30 0v-248h187v28H63v79h144v27H63v87h162V0H30" id="bp"/><g id="F"><use transform="matrix(0.06172839506172839,0,0,0.06172839506172839,0,0)" xlink:href="#bp"/><use transform="matrix(0.06172839506172839,0,0,0.06172839506172839,14.814814814814813,0)" xlink:href="#T"/><use transform="matrix(0.06172839506172839,0,0,0.06172839506172839,19.691358024691354,0)" xlink:href="#ac"/><use transform="matrix(0.06172839506172839,0,0,0.06172839506172839,32.03703703703703,0)" xlink:href="#V"/><use transform="matrix(0.06172839506172839,0,0,0.06172839506172839,43.14814814814814,0)" xlink:href="#W"/><use transform="matrix(0.06172839506172839,0,0,0.06172839506172839,49.32098765432098,0)" xlink:href="#am"/><use transform="matrix(0.06172839506172839,0,0,0.06172839506172839,54.197530864197525,0)" xlink:href="#bn"/></g><g id="G"><use transform="matrix(0.06172839506172839,0,0,0.06172839506172839,0,0)" xlink:href="#S"/><use transform="matrix(0.06172839506172839,0,0,0.06172839506172839,15.987654320987653,0)" xlink:href="#ae"/><use transform="matrix(0.06172839506172839,0,0,0.06172839506172839,28.333333333333332,0)" xlink:href="#ah"/><use transform="matrix(0.06172839506172839,0,0,0.06172839506172839,40.67901234567901,0)" xlink:href="#W"/><use transform="matrix(0.06172839506172839,0,0,0.06172839506172839,46.851851851851855,0)" xlink:href="#ac"/><use transform="matrix(0.06172839506172839,0,0,0.06172839506172839,59.19753086419753,0)" xlink:href="#am"/><use transform="matrix(0.06172839506172839,0,0,0.06172839506172839,64.07407407407408,0)" xlink:href="#ah"/><use transform="matrix(0.06172839506172839,0,0,0.06172839506172839,76.41975308641976,0)" xlink:href="#X"/><use transform="matrix(0.06172839506172839,0,0,0.06172839506172839,88.76543209876544,0)" xlink:href="#Y"/></g><path fill="#333" d="M108 0H70L1-190h34L89-25l56-165h34" id="bq"/><g id="H"><use transform="matrix(0.06172839506172839,0,0,0.06172839506172839,0,0)" xlink:href="#aJ"/><use transform="matrix(0.06172839506172839,0,0,0.06172839506172839,14.814814814814813,0)" xlink:href="#X"/><use transform="matrix(0.06172839506172839,0,0,0.06172839506172839,27.160493827160494,0)" xlink:href="#Y"/><use transform="matrix(0.06172839506172839,0,0,0.06172839506172839,34.50617283950617,0)" xlink:href="#bq"/><use transform="matrix(0.06172839506172839,0,0,0.06172839506172839,45.61728395061728,0)" xlink:href="#am"/><use transform="matrix(0.06172839506172839,0,0,0.06172839506172839,50.49382716049382,0)" xlink:href="#bn"/><use transform="matrix(0.06172839506172839,0,0,0.06172839506172839,61.60493827160494,0)" xlink:href="#X"/></g><g id="I"><use transform="matrix(0.06172839506172839,0,0,0.06172839506172839,0,0)" xlink:href="#ad"/><use transform="matrix(0.06172839506172839,0,0,0.06172839506172839,6.172839506172839,0)" xlink:href="#ae"/><use transform="matrix(0.06172839506172839,0,0,0.06172839506172839,18.51851851851852,0)" xlink:href="#Y"/></g><path fill="#333" d="M194 0L95-120 63-95V0H30v-248h33v124l119-124h40L117-140 236 0h-42" id="br"/><g id="J"><use transform="matrix(0.06172839506172839,0,0,0.06172839506172839,0,0)" xlink:href="#br"/><use transform="matrix(0.06172839506172839,0,0,0.06172839506172839,14.814814814814813,0)" xlink:href="#U"/><use transform="matrix(0.06172839506172839,0,0,0.06172839506172839,27.160493827160494,0)" xlink:href="#aj"/><use transform="matrix(0.06172839506172839,0,0,0.06172839506172839,39.50617283950617,0)" xlink:href="#X"/><use transform="matrix(0.06172839506172839,0,0,0.06172839506172839,51.85185185185185,0)" xlink:href="#Y"/><use transform="matrix(0.06172839506172839,0,0,0.06172839506172839,59.197530864197525,0)" xlink:href="#ah"/><use transform="matrix(0.06172839506172839,0,0,0.06172839506172839,71.5432098765432,0)" xlink:href="#X"/><use transform="matrix(0.06172839506172839,0,0,0.06172839506172839,83.88888888888889,0)" xlink:href="#W"/><use transform="matrix(0.06172839506172839,0,0,0.06172839506172839,90.06172839506172,0)" xlink:href="#X"/><use transform="matrix(0.06172839506172839,0,0,0.06172839506172839,102.4074074074074,0)" xlink:href="#V"/></g><path fill="#333" d="M137 0h-34L2-248h35l83 218 83-218h36" id="bs"/><g id="K"><use transform="matrix(0.06172839506172839,0,0,0.06172839506172839,0,0)" xlink:href="#bs"/><use transform="matrix(0.06172839506172839,0,0,0.06172839506172839,14.814814814814813,0)" xlink:href="#at"/><use transform="matrix(0.06172839506172839,0,0,0.06172839506172839,29.629629629629626,0)" xlink:href="#S"/></g><g id="L"><use transform="matrix(0.06172839506172839,0,0,0.06172839506172839,0,0)" xlink:href="#V"/><use transform="matrix(0.06172839506172839,0,0,0.06172839506172839,11.11111111111111,0)" xlink:href="#U"/><use transform="matrix(0.06172839506172839,0,0,0.06172839506172839,23.45679012345679,0)" xlink:href="#aj"/><use transform="matrix(0.06172839506172839,0,0,0.06172839506172839,35.80246913580247,0)" xlink:href="#ah"/><use transform="matrix(0.06172839506172839,0,0,0.06172839506172839,48.148148148148145,0)" xlink:href="#X"/><use transform="matrix(0.06172839506172839,0,0,0.06172839506172839,60.49382716049382,0)" xlink:href="#W"/></g><g id="M"><use transform="matrix(0.06172839506172839,0,0,0.06172839506172839,0,0)" xlink:href="#ab"/><use transform="matrix(0.06172839506172839,0,0,0.06172839506172839,11.049382716049381,0)" xlink:href="#X"/><use transform="matrix(0.06172839506172839,0,0,0.06172839506172839,23.39506172839506,0)" xlink:href="#ac"/><use transform="matrix(0.06172839506172839,0,0,0.06172839506172839,35.74074074074074,0)" xlink:href="#af"/></g><g id="N"><use transform="matrix(0.06172839506172839,0,0,0.06172839506172839,0,0)" xlink:href="#ai"/><use transform="matrix(0.06172839506172839,0,0,0.06172839506172839,11.11111111111111,0)" xlink:href="#U"/><use transform="matrix(0.06172839506172839,0,0,0.06172839506172839,23.45679012345679,0)" xlink:href="#aj"/><use transform="matrix(0.06172839506172839,0,0,0.06172839506172839,35.80246913580247,0)" xlink:href="#X"/><use transform="matrix(0.06172839506172839,0,0,0.06172839506172839,48.148148148148145,0)" xlink:href="#Y"/><use transform="matrix(0.06172839506172839,0,0,0.06172839506172839,55.49382716049382,0)" xlink:href="#ah"/><use transform="matrix(0.06172839506172839,0,0,0.06172839506172839,67.8395061728395,0)" xlink:href="#X"/><use transform="matrix(0.06172839506172839,0,0,0.06172839506172839,80.18518518518519,0)" xlink:href="#W"/><use transform="matrix(0.06172839506172839,0,0,0.06172839506172839,86.35802469135803,0)" xlink:href="#X"/><use transform="matrix(0.06172839506172839,0,0,0.06172839506172839,98.70370370370371,0)" xlink:href="#V"/><use transform="matrix(0.06172839506172839,0,0,0.06172839506172839,109.81481481481482,0)" xlink:href="#ak"/><use transform="matrix(0.06172839506172839,0,0,0.06172839506172839,117.16049382716051,0)" xlink:href="#ad"/><use transform="matrix(0.06172839506172839,0,0,0.06172839506172839,123.33333333333334,0)" xlink:href="#ae"/><use transform="matrix(0.06172839506172839,0,0,0.06172839506172839,135.679012345679,0)" xlink:href="#U"/><use transform="matrix(0.06172839506172839,0,0,0.06172839506172839,148.02469135802468,0)" xlink:href="#ah"/><use transform="matrix(0.06172839506172839,0,0,0.06172839506172839,160.37037037037035,0)" xlink:href="#al"/><use transform="matrix(0.06172839506172839,0,0,0.06172839506172839,172.71604938271602,0)" xlink:href="#ac"/><use transform="matrix(0.06172839506172839,0,0,0.06172839506172839,185.0617283950617,0)" xlink:href="#W"/><use transform="matrix(0.06172839506172839,0,0,0.06172839506172839,191.23456790123453,0)" xlink:href="#am"/><use transform="matrix(0.06172839506172839,0,0,0.06172839506172839,196.11111111111106,0)" xlink:href="#ae"/><use transform="matrix(0.06172839506172839,0,0,0.06172839506172839,208.45679012345673,0)" xlink:href="#ah"/><use transform="matrix(0.06172839506172839,0,0,0.06172839506172839,220.8024691358024,0)" xlink:href="#ak"/><use transform="matrix(0.06172839506172839,0,0,0.06172839506172839,228.14814814814807,0)" xlink:href="#W"/><use transform="matrix(0.06172839506172839,0,0,0.06172839506172839,234.3209876543209,0)" xlink:href="#X"/><use transform="matrix(0.06172839506172839,0,0,0.06172839506172839,246.66666666666657,0)" xlink:href="#ac"/><use transform="matrix(0.06172839506172839,0,0,0.06172839506172839,259.01234567901224,0)" xlink:href="#af"/><use transform="matrix(0.06172839506172839,0,0,0.06172839506172839,277.46913580246905,0)" xlink:href="#V"/></g><g id="O"><use transform="matrix(0.06172839506172839,0,0,0.06172839506172839,0,0)" xlink:href="#au"/><use transform="matrix(0.06172839506172839,0,0,0.06172839506172839,15.987654320987653,0)" xlink:href="#aK"/><use transform="matrix(0.06172839506172839,0,0,0.06172839506172839,30.80246913580247,0)" xlink:href="#aq"/><use transform="matrix(0.06172839506172839,0,0,0.06172839506172839,45.61728395061728,0)" xlink:href="#S"/></g><path d="M194 0L95-120 63-95V0H30v-248h33v124l119-124h40L117-140 236 0h-42" id="bt"/><path d="M84 4C-5 8 30-112 23-190h32v120c0 31 7 50 39 49 72-2 45-101 50-169h31l1 190h-30c-1-10 1-25-2-33-11 22-28 36-60 37" id="bu"/><path d="M115-194c53 0 69 39 70 98 0 66-23 100-70 100C84 3 66-7 56-30L54 0H23l1-261h32v101c10-23 28-34 59-34zm-8 174c40 0 45-34 45-75 0-40-5-75-45-74-42 0-51 32-51 76 0 43 10 73 51 73" id="bv"/><path d="M100-194c63 0 86 42 84 106H49c0 40 14 67 53 68 26 1 43-12 49-29l28 8c-11 28-37 45-77 45C44 4 14-33 15-96c1-61 26-98 85-98zm52 81c6-60-76-77-97-28-3 7-6 17-6 28h103" id="bw"/><path d="M114-163C36-179 61-72 57 0H25l-1-190h30c1 12-1 29 2 39 6-27 23-49 58-41v29" id="bx"/><path d="M117-194c89-4 53 116 60 194h-32v-121c0-31-8-49-39-48C34-167 62-67 57 0H25l-1-190h30c1 10-1 24 2 32 11-22 29-35 61-36" id="by"/><path d="M59-47c-2 24 18 29 38 22v24C64 9 27 4 27-40v-127H5v-23h24l9-43h21v43h35v23H59v120" id="bz"/><path d="M135-143c-3-34-86-38-87 0 15 53 115 12 119 90S17 21 10-45l28-5c4 36 97 45 98 0-10-56-113-15-118-90-4-57 82-63 122-42 12 7 21 19 24 35" id="bA"/><g id="P"><use transform="matrix(0.05,0,0,0.05,0,0)" xlink:href="#bt"/><use transform="matrix(0.05,0,0,0.05,12,0)" xlink:href="#bu"/><use transform="matrix(0.05,0,0,0.05,22,0)" xlink:href="#bv"/><use transform="matrix(0.05,0,0,0.05,32,0)" xlink:href="#bw"/><use transform="matrix(0.05,0,0,0.05,42,0)" xlink:href="#bx"/><use transform="matrix(0.05,0,0,0.05,47.95,0)" xlink:href="#by"/><use transform="matrix(0.05,0,0,0.05,57.95,0)" xlink:href="#bw"/><use transform="matrix(0.05,0,0,0.05,67.95,0)" xlink:href="#bz"/><use transform="matrix(0.05,0,0,0.05,72.95,0)" xlink:href="#bw"/><use transform="matrix(0.05,0,0,0.05,82.95,0)" xlink:href="#bA"/></g><path d="M63-220v92h138v28H63V0H30v-248h175v28H63" id="bB"/><path d="M100-194c62-1 85 37 85 99 1 63-27 99-86 99S16-35 15-95c0-66 28-99 85-99zM99-20c44 1 53-31 53-75 0-43-8-75-51-75s-53 32-53 75 10 74 51 75" id="bC"/><path d="M85-194c31 0 48 13 60 33l-1-100h32l1 261h-30c-2-10 0-23-3-31C134-8 116 4 85 4 32 4 16-35 15-94c0-66 23-100 70-100zm9 24c-40 0-46 34-46 75 0 40 6 74 45 74 42 0 51-32 51-76 0-42-9-74-50-73" id="bD"/><path d="M141-36C126-15 110 5 73 4 37 3 15-17 15-53c-1-64 63-63 125-63 3-35-9-54-41-54-24 1-41 7-42 31l-33-3c5-37 33-52 76-52 45 0 72 20 72 64v82c-1 20 7 32 28 27v20c-31 9-61-2-59-35zM48-53c0 20 12 33 32 33 41-3 63-29 60-74-43 2-92-5-92 41" id="bE"/><path d="M24-231v-30h32v30H24zM24 0v-190h32V0H24" id="bF"/><g id="Q"><use transform="matrix(0.05,0,0,0.05,0,0)" xlink:href="#bB"/><use transform="matrix(0.05,0,0,0.05,10.950000000000001,0)" xlink:href="#bC"/><use transform="matrix(0.05,0,0,0.05,20.950000000000003,0)" xlink:href="#bu"/><use transform="matrix(0.05,0,0,0.05,30.950000000000003,0)" xlink:href="#by"/><use transform="matrix(0.05,0,0,0.05,40.95,0)" xlink:href="#bD"/><use transform="matrix(0.05,0,0,0.05,50.95,0)" xlink:href="#bE"/><use transform="matrix(0.05,0,0,0.05,60.95,0)" xlink:href="#bz"/><use transform="matrix(0.05,0,0,0.05,65.95,0)" xlink:href="#bF"/><use transform="matrix(0.05,0,0,0.05,69.9,0)" xlink:href="#bC"/><use transform="matrix(0.05,0,0,0.05,79.9,0)" xlink:href="#by"/></g><path d="M96-169c-40 0-48 33-48 73s9 75 48 75c24 0 41-14 43-38l32 2c-6 37-31 61-74 61-59 0-76-41-82-99-10-93 101-131 147-64 4 7 5 14 7 22l-32 3c-4-21-16-35-41-35" id="bG"/><g id="R"><use transform="matrix(0.05,0,0,0.05,0,0)" xlink:href="#bx"/><use transform="matrix(0.05,0,0,0.05,5.95,0)" xlink:href="#bw"/><use transform="matrix(0.05,0,0,0.05,15.949999999999998,0)" xlink:href="#bA"/><use transform="matrix(0.05,0,0,0.05,24.95,0)" xlink:href="#bC"/><use transform="matrix(0.05,0,0,0.05,34.95,0)" xlink:href="#bu"/><use transform="matrix(0.05,0,0,0.05,44.95,0)" xlink:href="#bx"/><use transform="matrix(0.05,0,0,0.05,50.900000000000006,0)" xlink:href="#bG"/><use transform="matrix(0.05,0,0,0.05,59.900000000000006,0)" xlink:href="#bw"/><use transform="matrix(0.05,0,0,0.05,69.9,0)" xlink:href="#bA"/></g></defs></g></svg>